<?xml version="1.0" encoding="UTF-8"?>
<svg width="224px" height="74px" viewBox="0 0 224 74" version="1.1" xmlns="http://www.w3.org/2000/svg" xmlns:xlink="http://www.w3.org/1999/xlink">
    <!-- Generator: Sketch 49 (51002) - http://www.bohemiancoding.com/sketch -->
    <title>Group</title>
    <desc>Created with Sketch.</desc>
    <defs>
        <radialGradient cx="50%" cy="52%" fx="50%" fy="52%" r="100%" gradientTransform="translate(0.500000,0.520000),scale(0.500000,1.000000),rotate(90.000000),translate(-0.500000,-0.520000)" id="radialGradient-1">
            <stop stop-color="#FFFFFF" offset="0%"></stop>
            <stop stop-color="#F5F5F5" offset="100%"></stop>
        </radialGradient>
    </defs>
    <g id="Page-1" stroke="none" stroke-width="1" fill="none" fill-rule="evenodd">
        <g id="Artboard-Copy-2" transform="translate(-154.000000, -274.000000)">
            <g id="Group" transform="translate(154.000000, 274.000000)">
                <g id="Group-3" transform="translate(0.000000, 32.000000)">
                    <path d="M1.78125,24.5078125 C1.87500047,23.5234326 1.92578121,22.902345 1.93359375,22.6445312 C1.98046898,20.9492103 2.00390625,19.9531265 2.00390625,19.65625 L2.00390625,14.4414062 C2.00390625,13.1367122 1.98046898,11.7890695 1.93359375,10.3984375 C1.90234359,9.46093281 1.85937527,8.93750055 1.8046875,8.828125 C1.7656248,8.74999961 1.70312543,8.69531266 1.6171875,8.6640625 C1.49999941,8.60937473 0.960942305,8.58203125 0,8.58203125 L0,7.890625 C1.76563383,7.67187391 2.99218406,7.39843914 3.6796875,7.0703125 C3.78125051,7.02343727 3.85937473,7 3.9140625,7 C3.96875027,7 4.01171859,7.01757795 4.04296875,7.05273438 C4.07421891,7.0878908 4.08984375,7.13671844 4.08984375,7.19921875 C4.08984375,7.25390652 4.08203133,7.33203074 4.06640625,7.43359375 L4.0546875,7.8203125 C4.0156248,9.21875699 3.99218754,10.4101513 3.984375,11.3945312 L3.9609375,13.2226562 L3.9609375,15.5429688 L5.578125,13.9609375 C5.78906355,13.7812491 6.13671633,13.6054696 6.62109375,13.4335938 C7.10547117,13.2617179 7.62109102,13.1757812 8.16796875,13.1757812 C9.02734805,13.1757812 9.78905918,13.3769511 10.453125,13.7792969 C11.1171908,14.1816426 11.6269513,14.7499963 11.9824219,15.484375 C12.3378924,16.2187537 12.515625,17.0312455 12.515625,17.921875 C12.515625,18.6093784 12.4140635,19.2617157 12.2109375,19.8789062 C12.0078115,20.4960968 11.7460954,21.0468726 11.4257812,21.53125 C11.1914051,21.8984393 10.9921883,22.1484368 10.828125,22.28125 L9.1171875,23.5117188 C8.42187152,24.0273463 7.8789082,24.3574212 7.48828125,24.5019531 C7.0976543,24.6464851 6.5976593,24.71875 5.98828125,24.71875 C5.46484113,24.71875 4.98047098,24.6484382 4.53515625,24.5078125 C4.08984152,24.3671868 3.61719,24.1210955 3.1171875,23.7695312 L2.16796875,24.6601562 L1.78125,24.5078125 Z M3.9609375,16.9492188 L3.9609375,21.34375 C3.9609375,21.734377 3.98242166,21.9843745 4.02539062,22.09375 C4.06835959,22.2031255 4.19921766,22.3476554 4.41796875,22.5273438 C4.74609539,22.8007826 5.12695096,23.0195304 5.56054688,23.1835938 C5.99414279,23.3476571 6.45312258,23.4296875 6.9375,23.4296875 C8.07031816,23.4296875 8.9414032,22.9921919 9.55078125,22.1171875 C10.1601593,21.2421831 10.4648438,20.1601627 10.4648438,18.8710938 C10.4648438,17.9570267 10.3203139,17.1914093 10.03125,16.5742188 C9.74218605,15.9570282 9.34375254,15.4941422 8.8359375,15.1855469 C8.32812246,14.8769516 7.75781566,14.7226562 7.125,14.7226562 C6.38280879,14.7226562 5.71875293,14.9355447 5.1328125,15.3613281 C4.54687207,15.7871115 4.15625098,16.3164031 3.9609375,16.9492188 Z" id="b" fill="#212121"></path>
                    <path d="M35.5820312,16.2460938 L34.9609375,16.0820312 C34.96875,15.9023429 34.9726562,15.6562516 34.9726562,15.34375 C34.9726562,15.0156234 34.96875,14.7539072 34.9609375,14.5585938 C35.95313,13.910153 36.7656218,13.4726574 37.3984375,13.2460938 C37.8828149,13.0820304 38.4257782,13 39.0273438,13 C39.9179732,13 40.6679657,13.1679671 41.2773438,13.5039062 C41.8867218,13.8398454 42.3398423,14.3203094 42.6367188,14.9453125 C42.8398448,15.3828147 42.9414062,15.980465 42.9414062,16.7382812 L42.8945312,18.8828125 L42.8945312,22.375 C42.8945312,22.7500019 42.9257809,23.0195304 42.9882812,23.1835938 C43.0351565,23.3007818 43.1093745,23.3867185 43.2109375,23.4414062 C43.2890629,23.4882815 43.4531238,23.5195312 43.703125,23.5351562 L44.4648438,23.6054688 L44.4648438,24.2734375 C43.8242155,24.2187497 43.2617212,24.1914062 42.7773438,24.1914062 C42.3085914,24.1914062 41.6835977,24.2187497 40.9023438,24.2734375 L40.9609375,22.2109375 C39.3671795,23.4140685 38.4218765,24.0917961 38.125,24.2441406 C37.8281235,24.3964851 37.4531273,24.4726562 37,24.4726562 C36.0546828,24.4726562 35.318362,24.2207056 34.7910156,23.7167969 C34.2636692,23.2128881 34,22.5429729 34,21.7070312 C34,21.1679661 34.091796,20.6757835 34.2753906,20.2304688 C34.4589853,19.785154 34.6796862,19.4316419 34.9375,19.1699219 C35.1953138,18.9082018 35.4570299,18.7148444 35.7226562,18.5898438 C36.1757835,18.3789052 36.9121043,18.152345 37.9316406,17.9101562 C38.951177,17.6679675 39.9609325,17.4882818 40.9609375,17.3710938 C40.96875,16.6289025 40.8789072,16.0507833 40.6914062,15.6367188 C40.5039053,15.2226542 40.1875022,14.8828138 39.7421875,14.6171875 C39.2968728,14.3515612 38.7539095,14.21875 38.1132812,14.21875 C37.6523414,14.21875 37.2480486,14.2812494 36.9003906,14.40625 C36.5527326,14.5312506 36.3398441,14.6367183 36.2617188,14.7226562 L36.0507812,15.1445312 C35.8398427,15.6132836 35.6835943,15.9804674 35.5820312,16.2460938 Z M40.9609375,18.0859375 C39.9453074,18.2578134 39.0781286,18.4492177 38.359375,18.6601562 C37.6406214,18.8710948 37.132814,19.0898426 36.8359375,19.3164062 C36.6562491,19.4492194 36.5000007,19.6484362 36.3671875,19.9140625 C36.1640615,20.3046895 36.0625,20.7382789 36.0625,21.2148438 C36.0625,21.7929716 36.2226546,22.244139 36.5429688,22.5683594 C36.8632829,22.8925797 37.3085909,23.0546875 37.8789062,23.0546875 C38.4023464,23.0546875 38.9199193,22.9042984 39.4316406,22.6035156 C39.9433619,22.3027329 40.4531225,21.8515655 40.9609375,21.25 L40.9609375,18.0859375 Z" id="a" fill="#212121"></path>
                    <path d="M24,0 L24,32" id="Line" stroke="#212121" stroke-linecap="square"></path>
                </g>
                <path d="M57.5,52.5 L88.5104155,52.5" id="Line-2" stroke="#030303" fill="#030303" stroke-linecap="square"></path>
                <path id="Line-2-decoration-1" d="M88.5104155,52.5 L77.7104155,49.5 L77.7104155,55.5 L88.5104155,52.5 Z" stroke="#030303" fill="#030303" stroke-linecap="square"></path>
                <g id="Group-2" transform="translate(100.000000, 0.000000)">
                    <rect id="Rectangle-6" stroke="#212121" fill="url(#radialGradient-1)" x="23" y="23" width="100" height="50"></rect>
                    <path d="M1.78125,56.5078125 C1.87500047,55.5234326 1.92578121,54.902345 1.93359375,54.6445312 C1.98046898,52.9492103 2.00390625,51.9531265 2.00390625,51.65625 L2.00390625,46.4414062 C2.00390625,45.1367122 1.98046898,43.7890695 1.93359375,42.3984375 C1.90234359,41.4609328 1.85937527,40.9375005 1.8046875,40.828125 C1.7656248,40.7499996 1.70312543,40.6953127 1.6171875,40.6640625 C1.49999941,40.6093747 0.960942305,40.5820312 0,40.5820312 L0,39.890625 C1.76563383,39.6718739 2.99218406,39.3984391 3.6796875,39.0703125 C3.78125051,39.0234373 3.85937473,39 3.9140625,39 C3.96875027,39 4.01171859,39.0175779 4.04296875,39.0527344 C4.07421891,39.0878908 4.08984375,39.1367184 4.08984375,39.1992188 C4.08984375,39.2539065 4.08203133,39.3320307 4.06640625,39.4335938 L4.0546875,39.8203125 C4.0156248,41.218757 3.99218754,42.4101513 3.984375,43.3945312 L3.9609375,45.2226562 L3.9609375,47.5429688 L5.578125,45.9609375 C5.78906355,45.7812491 6.13671633,45.6054696 6.62109375,45.4335938 C7.10547117,45.2617179 7.62109102,45.1757812 8.16796875,45.1757812 C9.02734805,45.1757812 9.78905918,45.3769511 10.453125,45.7792969 C11.1171908,46.1816426 11.6269513,46.7499963 11.9824219,47.484375 C12.3378924,48.2187537 12.515625,49.0312455 12.515625,49.921875 C12.515625,50.6093784 12.4140635,51.2617157 12.2109375,51.8789062 C12.0078115,52.4960968 11.7460954,53.0468726 11.4257812,53.53125 C11.1914051,53.8984393 10.9921883,54.1484368 10.828125,54.28125 L9.1171875,55.5117188 C8.42187152,56.0273463 7.8789082,56.3574212 7.48828125,56.5019531 C7.0976543,56.6464851 6.5976593,56.71875 5.98828125,56.71875 C5.46484113,56.71875 4.98047098,56.6484382 4.53515625,56.5078125 C4.08984152,56.3671868 3.61719,56.1210955 3.1171875,55.7695312 L2.16796875,56.6601562 L1.78125,56.5078125 Z M3.9609375,48.9492188 L3.9609375,53.34375 C3.9609375,53.734377 3.98242166,53.9843745 4.02539062,54.09375 C4.06835959,54.2031255 4.19921766,54.3476554 4.41796875,54.5273438 C4.74609539,54.8007826 5.12695096,55.0195304 5.56054688,55.1835938 C5.99414279,55.3476571 6.45312258,55.4296875 6.9375,55.4296875 C8.07031816,55.4296875 8.9414032,54.9921919 9.55078125,54.1171875 C10.1601593,53.2421831 10.4648438,52.1601627 10.4648438,50.8710938 C10.4648438,49.9570267 10.3203139,49.1914093 10.03125,48.5742188 C9.74218605,47.9570282 9.34375254,47.4941422 8.8359375,47.1855469 C8.32812246,46.8769516 7.75781566,46.7226562 7.125,46.7226562 C6.38280879,46.7226562 5.71875293,46.9355447 5.1328125,47.3613281 C4.54687207,47.7871115 4.15625098,48.3164031 3.9609375,48.9492188 Z" id="b" fill="#212121"></path>
                    <path d="M35.5820312,48.2460938 L34.9609375,48.0820312 C34.96875,47.9023429 34.9726562,47.6562516 34.9726562,47.34375 C34.9726562,47.0156234 34.96875,46.7539072 34.9609375,46.5585938 C35.95313,45.910153 36.7656218,45.4726574 37.3984375,45.2460938 C37.8828149,45.0820304 38.4257782,45 39.0273438,45 C39.9179732,45 40.6679657,45.1679671 41.2773438,45.5039062 C41.8867218,45.8398454 42.3398423,46.3203094 42.6367188,46.9453125 C42.8398448,47.3828147 42.9414062,47.980465 42.9414062,48.7382812 L42.8945312,50.8828125 L42.8945312,54.375 C42.8945312,54.7500019 42.9257809,55.0195304 42.9882812,55.1835938 C43.0351565,55.3007818 43.1093745,55.3867185 43.2109375,55.4414062 C43.2890629,55.4882815 43.4531237,55.5195312 43.703125,55.5351562 L44.4648438,55.6054688 L44.4648438,56.2734375 C43.8242155,56.2187497 43.2617212,56.1914062 42.7773438,56.1914062 C42.3085914,56.1914062 41.6835977,56.2187497 40.9023438,56.2734375 L40.9609375,54.2109375 C39.3671795,55.4140685 38.4218765,56.0917961 38.125,56.2441406 C37.8281235,56.3964851 37.4531273,56.4726562 37,56.4726562 C36.0546828,56.4726562 35.318362,56.2207056 34.7910156,55.7167969 C34.2636692,55.2128881 34,54.5429729 34,53.7070312 C34,53.1679661 34.091796,52.6757835 34.2753906,52.2304688 C34.4589853,51.785154 34.6796862,51.4316419 34.9375,51.1699219 C35.1953138,50.9082018 35.4570299,50.7148444 35.7226562,50.5898438 C36.1757835,50.3789052 36.9121043,50.152345 37.9316406,49.9101562 C38.951177,49.6679675 39.9609325,49.4882818 40.9609375,49.3710938 C40.96875,48.6289025 40.8789072,48.0507833 40.6914062,47.6367188 C40.5039053,47.2226542 40.1875022,46.8828138 39.7421875,46.6171875 C39.2968728,46.3515612 38.7539095,46.21875 38.1132812,46.21875 C37.6523414,46.21875 37.2480486,46.2812494 36.9003906,46.40625 C36.5527326,46.5312506 36.3398441,46.6367183 36.2617188,46.7226562 L36.0507812,47.1445312 C35.8398427,47.6132836 35.6835943,47.9804674 35.5820312,48.2460938 Z M40.9609375,50.0859375 C39.9453074,50.2578134 39.0781286,50.4492177 38.359375,50.6601562 C37.6406214,50.8710948 37.132814,51.0898426 36.8359375,51.3164062 C36.6562491,51.4492194 36.5000007,51.6484362 36.3671875,51.9140625 C36.1640615,52.3046895 36.0625,52.7382789 36.0625,53.2148438 C36.0625,53.7929716 36.2226546,54.244139 36.5429688,54.5683594 C36.8632829,54.8925797 37.3085909,55.0546875 37.8789062,55.0546875 C38.4023464,55.0546875 38.9199193,54.9042984 39.4316406,54.6035156 C39.9433619,54.3027329 40.4531225,53.8515655 40.9609375,53.25 L40.9609375,50.0859375 Z" id="a" fill="#212121"></path>
                    <path d="M23,32 L23,64" id="Line" stroke="#212121" stroke-linecap="square"></path>
                    <path d="M77.3828125,17.9296875 L77.3828125,18.5859375 C76.5312457,18.5312497 75.535162,18.5039062 74.3945312,18.5039062 C73.1992128,18.5039062 72.1796917,18.5312497 71.3359375,18.5859375 L71.3359375,17.9296875 C72.242192,17.9062499 72.7304684,17.890625 72.8007812,17.8828125 C72.9335944,17.8515623 73.0351559,17.8105471 73.1054688,17.7597656 C73.1757816,17.7089841 73.2304686,17.6367192 73.2695312,17.5429688 C73.3476566,17.3710929 73.3945312,17.0976581 73.4101562,16.7226562 C73.4101562,16.6835936 73.423828,16.1601613 73.4511719,15.1523438 C73.4785158,14.1445262 73.4921875,13.5742194 73.4921875,13.4414062 L73.4921875,10.3125 C73.2890615,10.414063 73.095704,10.5175776 72.9121094,10.6230469 C72.7285147,10.7285162 72.4921889,10.8749991 72.203125,11.0625 L70.65625,12.0820312 C70.265623,12.1445316 69.9179703,12.1757812 69.6132812,12.1757812 C68.0820236,12.1757812 66.9179727,11.6289117 66.1210938,10.5351562 C65.3242148,9.44140078 64.9257812,8.22656918 64.9257812,6.890625 C64.9257812,6.27343441 65.0097648,5.65820619 65.1777344,5.04492188 C65.345704,4.43163756 65.5527331,3.94140809 65.7988281,3.57421875 C66.0449231,3.20702941 66.3632793,2.87500148 66.7539062,2.578125 C66.9726573,2.41406168 67.4648399,2.12304896 68.2304688,1.70507812 C68.9960976,1.28710729 69.5117174,1.03515668 69.7773438,0.94921875 C70.2617212,0.792967969 70.777341,0.71484375 71.3242188,0.71484375 C71.8398463,0.71484375 72.3398413,0.77929623 72.8242188,0.908203125 C73.3085962,1.03711002 73.8398409,1.2460923 74.4179688,1.53515625 L75.625,0.7734375 L76.0585938,1.03125 C75.80078,1.75000359 75.6445315,2.32812281 75.5898438,2.765625 C75.4960933,3.53125383 75.4492188,4.83983449 75.4492188,6.69140625 L75.4492188,13.4414062 L75.4726562,15.0703125 C75.4960939,16.0078172 75.5117187,16.5585929 75.5195312,16.7226562 C75.5273438,17.1132832 75.5703121,17.3984366 75.6484375,17.578125 C75.6875002,17.6562504 75.7382809,17.7207029 75.8007812,17.7714844 C75.8632816,17.8222659 75.9570306,17.8593749 76.0820312,17.8828125 C76.1289065,17.890625 76.5624959,17.9062499 77.3828125,17.9296875 Z M73.4921875,2.89453125 C73.1874985,2.58984223 72.7597684,2.31054814 72.2089844,2.05664062 C71.6582004,1.80273311 71.1093777,1.67578125 70.5625,1.67578125 C69.5703075,1.67578125 68.7343784,2.06054303 68.0546875,2.83007812 C67.3749966,3.59961322 67.0351562,4.67186813 67.0351562,6.046875 C67.0351562,6.92969191 67.1933578,7.76562105 67.5097656,8.5546875 C67.8261735,9.34375395 68.2636691,9.91796695 68.8222656,10.2773438 C69.3808622,10.6367205 69.9960904,10.8164062 70.6679688,10.8164062 C71.222659,10.8164062 71.7304664,10.6835951 72.1914062,10.4179688 C72.6523461,10.1523424 73.0859355,9.76953375 73.4921875,9.26953125 C73.5156251,7.24608363 73.5273438,5.96484645 73.5273438,5.42578125 C73.5273438,4.60546465 73.5156251,3.76172309 73.4921875,2.89453125 Z" id="q-copy" fill="#212121"></path>
                </g>
            </g>
        </g>
    </g>
</svg>