<?xml version="1.0" encoding="UTF-8" standalone="no"?>
<!DOCTYPE svg PUBLIC "-//W3C//DTD SVG 1.1//EN"
 "http://www.w3.org/Graphics/SVG/1.1/DTD/svg11.dtd">
<!-- Generated by graphviz version 2.40.1 (20161225.0304)
 -->
<!-- Title: %3 Pages: 1 -->
<svg width="650pt" height="70pt"
 viewBox="0.00 0.00 649.60 69.77" xmlns="http://www.w3.org/2000/svg" xmlns:xlink="http://www.w3.org/1999/xlink">
<g id="graph0" class="graph" transform="scale(1 1) rotate(0) translate(4 65.771)">
<title>%3</title>
<polygon fill="#ffffff" stroke="transparent" points="-4,4 -4,-65.771 645.6031,-65.771 645.6031,4 -4,4"/>
<!-- fib5 -->
<g id="node1" class="node">
<title>fib5</title>
<ellipse fill="none" stroke="#000000" cx="45.8016" cy="-18" rx="45.604" ry="18"/>
<text text-anchor="middle" x="45.8016" y="-15.2" font-family="Fira Code" font-size="14.00" fill="#000000">Fib(5)</text>
</g>
<!-- fib4 -->
<g id="node2" class="node">
<title>fib4</title>
<ellipse fill="none" stroke="#000000" cx="155.8016" cy="-18" rx="45.604" ry="18"/>
<text text-anchor="middle" x="155.8016" y="-15.2" font-family="Fira Code" font-size="14.00" fill="#000000">Fib(4)</text>
</g>
<!-- fib5&#45;&gt;fib4 -->
<g id="edge1" class="edge">
<title>fib5&#45;&gt;fib4</title>
<path fill="none" stroke="#000000" d="M81.0359,-6.2435C90.9658,-4.4917 100.8956,-4.06 110.8254,-4.9484"/>
<polygon fill="#000000" stroke="#000000" points="110.3793,-8.4198 120.7552,-6.2769 111.3076,-1.4817 110.3793,-8.4198"/>
</g>
<!-- fib5&#45;&gt;fib4 -->
<!-- fib3 -->
<g id="node3" class="node">
<title>fib3</title>
<ellipse fill="none" stroke="#000000" cx="265.8016" cy="-18" rx="45.604" ry="18"/>
<text text-anchor="middle" x="265.8016" y="-15.2" font-family="Fira Code" font-size="14.00" fill="#000000">Fib(3)</text>
</g>
<!-- fib5&#45;&gt;fib3 -->
<g id="edge2" class="edge">
<title>fib5&#45;&gt;fib3</title>
<path fill="none" stroke="#000000" d="M67.6833,-34.0252C79.5159,-41.6981 94.7563,-50.0589 109.8016,-54 149.3559,-64.3613 162.2472,-64.3613 201.8016,-54 213.4382,-50.9518 225.1915,-45.2597 235.3945,-39.2869"/>
<polygon fill="#000000" stroke="#000000" points="237.2483,-42.2558 243.9199,-34.0252 233.5719,-36.2989 237.2483,-42.2558"/>
</g>
<!-- fib4&#45;&gt;fib3 -->
<!-- fib4&#45;&gt;fib3 -->
<g id="edge8" class="edge">
<title>fib4&#45;&gt;fib3</title>
<path fill="none" stroke="#000000" d="M191.0359,-29.7565C200.9658,-31.5083 210.8956,-31.94 220.8254,-31.0516"/>
<polygon fill="#000000" stroke="#000000" points="221.3076,-34.5183 230.7552,-29.7231 220.3793,-27.5802 221.3076,-34.5183"/>
</g>
<!-- fib2 -->
<g id="node4" class="node">
<title>fib2</title>
<ellipse fill="none" stroke="#000000" cx="375.8016" cy="-18" rx="45.604" ry="18"/>
<text text-anchor="middle" x="375.8016" y="-15.2" font-family="Fira Code" font-size="14.00" fill="#000000">Fib(2)</text>
</g>
<!-- fib4&#45;&gt;fib2 -->
<g id="edge9" class="edge">
<title>fib4&#45;&gt;fib2</title>
<path fill="none" stroke="#000000" d="M177.6833,-34.0252C189.5159,-41.6981 204.7563,-50.0589 219.8016,-54 259.3559,-64.3613 272.2472,-64.3613 311.8016,-54 323.4382,-50.9518 335.1915,-45.2597 345.3945,-39.2869"/>
<polygon fill="#000000" stroke="#000000" points="347.2483,-42.2558 353.9199,-34.0252 343.5719,-36.2989 347.2483,-42.2558"/>
</g>
<!-- fib3&#45;&gt;fib2 -->
<!-- fib3&#45;&gt;fib2 -->
<g id="edge10" class="edge">
<title>fib3&#45;&gt;fib2</title>
<path fill="none" stroke="#000000" d="M301.0359,-29.7565C310.9658,-31.5083 320.8956,-31.94 330.8254,-31.0516"/>
<polygon fill="#000000" stroke="#000000" points="331.3076,-34.5183 340.7552,-29.7231 330.3793,-27.5802 331.3076,-34.5183"/>
</g>
<!-- fib1 -->
<g id="node5" class="node">
<title>fib1</title>
<ellipse fill="none" stroke="#000000" cx="485.8016" cy="-18" rx="45.604" ry="18"/>
<text text-anchor="middle" x="485.8016" y="-15.2" font-family="Fira Code" font-size="14.00" fill="#000000">Fib(1)</text>
</g>
<!-- fib3&#45;&gt;fib1 -->
<g id="edge11" class="edge">
<title>fib3&#45;&gt;fib1</title>
<path fill="none" stroke="#000000" d="M287.6833,-34.0252C299.5159,-41.6981 314.7563,-50.0589 329.8016,-54 369.3559,-64.3613 382.2472,-64.3613 421.8016,-54 433.4382,-50.9518 445.1915,-45.2597 455.3945,-39.2869"/>
<polygon fill="#000000" stroke="#000000" points="457.2483,-42.2558 463.9199,-34.0252 453.5719,-36.2989 457.2483,-42.2558"/>
</g>
<!-- fib2&#45;&gt;fib1 -->
<!-- fib2&#45;&gt;fib1 -->
<g id="edge12" class="edge">
<title>fib2&#45;&gt;fib1</title>
<path fill="none" stroke="#000000" d="M411.0359,-29.7565C420.9658,-31.5083 430.8956,-31.94 440.8254,-31.0516"/>
<polygon fill="#000000" stroke="#000000" points="441.3076,-34.5183 450.7552,-29.7231 440.3793,-27.5802 441.3076,-34.5183"/>
</g>
<!-- fib0 -->
<g id="node6" class="node">
<title>fib0</title>
<ellipse fill="none" stroke="#000000" cx="595.8016" cy="-18" rx="45.604" ry="18"/>
<text text-anchor="middle" x="595.8016" y="-15.2" font-family="Fira Code" font-size="14.00" fill="#000000">Fib(0)</text>
</g>
<!-- fib2&#45;&gt;fib0 -->
<g id="edge13" class="edge">
<title>fib2&#45;&gt;fib0</title>
<path fill="none" stroke="#000000" d="M397.6833,-34.0252C409.5159,-41.6981 424.7563,-50.0589 439.8016,-54 479.3559,-64.3613 492.2472,-64.3613 531.8016,-54 543.4382,-50.9518 555.1915,-45.2597 565.3945,-39.2869"/>
<polygon fill="#000000" stroke="#000000" points="567.2483,-42.2558 573.9199,-34.0252 563.5719,-36.2989 567.2483,-42.2558"/>
</g>
<!-- fib1&#45;&gt;fib0 -->
</g>
</svg>
