<?xml version="1.0" encoding="UTF-8"?>
<svg width="303px" height="174px" viewBox="0 0 303 174" version="1.1" xmlns="http://www.w3.org/2000/svg" xmlns:xlink="http://www.w3.org/1999/xlink">
    <!-- Generator: Sketch 49 (51002) - http://www.bohemiancoding.com/sketch -->
    <title>Group</title>
    <desc>Created with Sketch.</desc>
    <defs></defs>
    <g id="Page-1" stroke="none" stroke-width="1" fill="none" fill-rule="evenodd">
        <g id="Artboard" transform="translate(-178.000000, -84.000000)">
            <g id="Group" transform="translate(175.000000, 82.000000)">
                <rect id="Rectangle-3" x="0" y="0" width="350" height="201.282051"></rect>
                <rect id="Rectangle" fill="#2AB573" x="49" y="47" width="256.410256" height="128.205128"></rect>
                <path d="M172.949847,108.000797 L172.184351,107.79859 C172.19398,107.577125 172.198795,107.273819 172.198795,106.888662 C172.198795,106.484247 172.19398,106.161683 172.184351,105.92096 C173.407224,105.12176 174.408617,104.582548 175.18856,104.30331 C175.785553,104.101102 176.454753,104 177.19618,104 C178.293877,104 179.21824,104.207019 179.969295,104.621062 C180.720351,105.035106 181.27882,105.627276 181.644719,106.397589 C181.895071,106.936809 182.020245,107.67341 182.020245,108.607416 L181.962472,111.250542 L181.962472,115.554648 C181.962472,116.016836 182.000987,116.349029 182.078019,116.551236 C182.135792,116.69567 182.227266,116.801587 182.352442,116.868989 C182.448731,116.926763 182.650935,116.965278 182.959061,116.984536 L183.897876,117.071195 L183.897876,117.894464 C183.108304,117.827062 182.415032,117.793361 181.818039,117.793361 C181.240304,117.793361 180.470002,117.827062 179.50711,117.894464 L179.579326,115.352442 C177.615026,116.835295 176.449944,117.670592 176.084045,117.858356 C175.718146,118.04612 175.255965,118.14 174.697487,118.14 C173.532388,118.14 172.624876,117.829472 171.974923,117.208407 C171.324971,116.587341 171,115.761674 171,114.731379 C171,114.066984 171.113138,113.460371 171.339418,112.911522 C171.565697,112.362674 171.83771,111.926972 172.155465,111.604403 C172.473219,111.281834 172.795783,111.043522 173.123167,110.889459 C173.681644,110.629478 174.589156,110.350243 175.84573,110.051747 C177.102305,109.75325 178.346824,109.531788 179.579326,109.387355 C179.588955,108.472607 179.478224,107.760078 179.24713,107.249745 C179.016036,106.739412 178.62607,106.32056 178.077222,105.993177 C177.528373,105.665793 176.859173,105.502104 176.069602,105.502104 C175.501495,105.502104 175.003206,105.579134 174.574719,105.733197 C174.146232,105.88726 173.883848,106.017248 173.787559,106.123167 L173.527579,106.643126 C173.267598,107.220861 173.075023,107.673414 172.949847,108.000797 Z M179.579326,110.268396 C178.327566,110.480233 177.258772,110.716138 176.372911,110.976119 C175.48705,111.2361 174.86118,111.505705 174.495281,111.784944 C174.273816,111.948636 174.08124,112.194169 173.917549,112.521553 C173.667197,113.002999 173.542023,113.537396 173.542023,114.12476 C173.542023,114.8373 173.739412,115.393362 174.134198,115.792962 C174.528984,116.192563 175.077824,116.39236 175.780736,116.39236 C176.425873,116.39236 177.06378,116.207006 177.694474,115.836292 C178.325168,115.465579 178.953446,114.909517 179.579326,114.16809 L179.579326,110.268396 Z" id="a" fill="#FFFFFF"></path>
                <rect id="Rectangle-2-Copy" fill="#FFFFFF" x="7.69230769" y="85.8974359" width="38.4615385" height="51.2820513"></rect>
                <rect id="Rectangle-2" fill="#FFFFFF" x="157.692308" y="2.56410256" width="38.4615385" height="38.4615385"></rect>
                <rect id="Rectangle-2-Copy-2" fill="#FFFFFF" x="3.84615385" y="92.3076923" width="38.4615385" height="38.4615385"></rect>
                <path d="M19.0260481,120.91392 C19.1326827,119.794256 19.1904423,119.087812 19.1993285,118.794567 C19.2526458,116.866257 19.2793041,115.733281 19.2793041,115.395605 L19.2793041,109.464082 C19.2793041,107.980084 19.2526458,106.447234 19.1993285,104.865486 C19.1637836,103.79914 19.1149101,103.203772 19.0527066,103.079365 C19.0082755,102.990503 18.9371868,102.9283 18.8394384,102.892755 C18.7061451,102.830552 18.0930051,102.799451 17,102.799451 L17,102.013024 C19.0082858,101.76421 20.4034014,101.453197 21.1853888,101.079976 C21.3009096,101.026658 21.3897705,101 21.451974,101 C21.5141776,101 21.563051,101.019994 21.5985959,101.059982 C21.6341408,101.09997 21.651913,101.155508 21.651913,101.226597 C21.651913,101.288801 21.6430269,101.377662 21.6252545,101.493183 L21.6119252,101.933048 C21.5674941,103.523682 21.5408358,104.87881 21.5319496,105.998474 L21.5052911,108.077839 L21.5052911,110.717033 L23.3447295,108.917583 C23.5846574,108.713199 23.9800883,108.513263 24.5310339,108.317766 C25.0819796,108.122269 25.6684613,108.024522 26.2904967,108.024522 C27.2679809,108.024522 28.1343744,108.253339 28.8897031,108.710979 C29.6450318,109.168619 30.224849,109.815082 30.629172,110.650387 C31.033495,111.485692 31.2356535,112.409845 31.2356535,113.422874 C31.2356535,114.204861 31.1201343,114.946849 30.8890926,115.648861 C30.6580509,116.350872 30.360367,116.977341 29.996032,117.528287 C29.7294454,117.945939 29.5028501,118.230294 29.3162395,118.38136 L27.370167,119.780932 C26.5792935,120.367423 25.9617104,120.74286 25.5173994,120.907255 C25.0730884,121.07165 24.5043788,121.153846 23.8112537,121.153846 C23.2158769,121.153846 22.6649395,121.073872 22.158425,120.91392 C21.6519104,120.753968 21.1143022,120.474056 20.5455841,120.074176 L19.4659138,121.0872 L19.0260481,120.91392 Z M21.5052911,112.316545 L21.5052911,117.315019 C21.5052911,117.75933 21.5297278,118.043684 21.578602,118.168091 C21.6274762,118.292499 21.7763182,118.456891 22.0251324,118.661274 C22.3983536,118.972292 22.8315503,119.221102 23.3247356,119.407713 C23.8179208,119.594324 24.3399784,119.687628 24.890924,119.687628 C26.1794259,119.687628 27.1702246,119.190007 27.8633498,118.19475 C28.556475,117.199493 28.9030324,115.96877 28.9030324,114.502544 C28.9030324,113.462856 28.7386397,112.59202 28.4098496,111.890008 C28.0810595,111.187997 27.627869,110.661496 27.0502647,110.310491 C26.4726604,109.959485 25.8239761,109.783985 25.1041922,109.783985 C24.2600013,109.783985 23.5046839,110.026131 22.8382174,110.51043 C22.1717509,110.994729 21.7274466,111.596761 21.5052911,112.316545 Z" id="b" fill="#000000"></path>
                <path d="M170.079897,29.8411965 L170.079897,29.0821708 L171.331624,29.0688546 C171.52693,29.0599771 171.675626,29.0266868 171.777718,28.9689828 C171.87981,28.9112788 171.957487,28.8380402 172.010752,28.7492649 C172.108405,28.5717141 172.166108,28.2565663 172.183863,27.8038119 C172.192741,27.6884039 172.223812,26.4144964 172.277077,23.9820512 L172.277077,18.4558119 C172.277077,16.9732632 172.250445,15.441911 172.197179,13.8617094 C172.161669,12.7964049 172.112844,12.2016188 172.050701,12.0773333 C172.006313,11.988558 171.935294,11.9264161 171.837641,11.890906 C171.704478,11.8287632 171.091937,11.7976923 170,11.7976923 L170,11.0120342 C172.006323,10.7634631 173.400076,10.452754 174.181299,10.0798974 C174.296707,10.0266322 174.385481,10 174.447624,10 C174.509767,10 174.558592,10.0199742 174.594103,10.0599231 C174.629613,10.099872 174.647367,10.1553558 174.647367,10.2263761 C174.647367,10.2885188 174.63849,10.3772929 174.620735,10.4927009 L174.607419,10.9321367 C174.563031,12.5212159 174.536399,13.87502 174.527521,14.9935897 L174.500889,17.070923 L174.500889,22.4240512 L174.647367,22.5039487 C175.117877,22.2109899 175.796998,21.6916618 176.684752,20.9459487 C177.279547,20.439929 178.615596,19.2148473 180.69294,17.2706666 C181.37651,17.2972992 181.811503,17.3106153 181.997932,17.3106153 C182.175482,17.3106153 182.623791,17.2972992 183.342872,17.2706666 L183.342872,18.016376 C182.827975,18.0430086 182.499511,18.0785183 182.35747,18.1229059 C182.162164,18.1850487 181.793752,18.389229 181.252222,18.7354529 C180.399979,19.2769827 179.374638,20.0448782 178.176171,21.0391623 L176.817914,22.1177777 C177.536995,22.8546133 178.779832,24.0885725 180.546461,25.8196922 C181.878092,27.1779554 182.679278,27.9702637 182.950043,28.1966409 C183.220808,28.4230181 183.48491,28.5583985 183.742359,28.6027862 C183.999807,28.6471739 184.399291,28.6693674 184.94082,28.6693674 L184.94082,29.2685982 C184.283883,29.3928837 183.729045,29.5060706 183.276291,29.6081623 C182.823536,29.710254 182.304208,29.8323183 181.718291,29.9743589 C181.416454,29.7257878 181.1235,29.4705625 180.839419,29.2086751 C180.555338,28.9467878 179.973868,28.3630985 179.094991,27.4575897 C177.292851,25.6110619 175.810325,24.1684838 174.647367,23.1298119 L174.500889,23.1963931 L174.500889,23.9820512 C174.545277,26.2902109 174.571909,27.5374862 174.580786,27.7239144 C174.589664,28.1677913 174.642928,28.4918166 174.740581,28.6959999 C174.776091,28.7758977 174.829356,28.8446976 174.900376,28.9024016 C174.971396,28.9601056 175.077925,29.006712 175.219966,29.0422221 C175.282109,29.0510997 175.774804,29.0644158 176.698068,29.0821708 L176.698068,29.8411965 C175.526233,29.7701762 174.465384,29.7346666 173.515487,29.7346666 C172.592223,29.7346666 171.447038,29.7701762 170.079897,29.8411965 Z" id="k" fill="#000000"></path>
            </g>
        </g>
    </g>
</svg>