<?xml version="1.0" encoding="UTF-8"?>
<svg width="327px" height="328px" viewBox="0 0 327 328" version="1.1" xmlns="http://www.w3.org/2000/svg" xmlns:xlink="http://www.w3.org/1999/xlink">
    <!-- Generator: Sketch 49 (51002) - http://www.bohemiancoding.com/sketch -->
    <title>Group 2</title>
    <desc>Created with Sketch.</desc>
    <defs></defs>
    <g id="Page-1" stroke="none" stroke-width="1" fill="none" fill-rule="evenodd">
        <g id="Artboard-Copy" transform="translate(-184.000000, -30.000000)">
            <g id="Group-2" transform="translate(165.000000, 20.000000)">
                <rect id="Rectangle-5" x="0" y="0" width="362" height="355"></rect>
                <rect id="Rectangle-4" fill="#2AB573" x="36" y="38" width="180" height="60"></rect>
                <path d="M29.171875,74.6523438 L28.703125,75.4375 C28.1640598,75.7265639 27.630862,75.9374993 27.1035156,76.0703125 C26.5761692,76.2031257 25.9804721,76.2695312 25.3164062,76.2695312 C23.675773,76.2695312 22.3691455,75.7753956 21.3964844,74.7871094 C20.4238233,73.7988232 19.9375,72.4414149 19.9375,70.7148438 C19.9375,69.8007767 20.0683581,69.0058628 20.3300781,68.3300781 C20.5917982,67.6542935 20.9140606,67.1328143 21.296875,66.765625 C21.5546888,66.5078112 22.0449183,66.1738302 22.7675781,65.7636719 C23.490238,65.3535136 23.9960923,65.0898443 24.2851562,64.9726562 C24.8164089,64.7460926 25.4531213,64.6328125 26.1953125,64.6328125 C26.898441,64.6328125 27.5312472,64.7070305 28.09375,64.8554688 C28.4531268,64.9492192 28.8124982,65.1054677 29.171875,65.3242188 C29.0781245,65.9257843 29.0117189,66.3808578 28.9726562,66.6894531 C28.9335936,66.9980484 28.8828128,67.5585897 28.8203125,68.3710938 L28.1523438,68.3710938 C28.1054685,67.6132775 28.058594,67.1406259 28.0117188,66.953125 C27.9804686,66.8359369 27.9101568,66.7304692 27.8007812,66.6367188 C27.5195298,66.4179677 27.1582053,66.2285164 26.7167969,66.0683594 C26.2753884,65.9082023 25.7929714,65.828125 25.2695312,65.828125 C24.613278,65.828125 24.0449243,65.9628893 23.5644531,66.2324219 C23.083982,66.5019545 22.7109388,66.9296846 22.4453125,67.515625 C22.1796862,68.1015654 22.046875,68.8281207 22.046875,69.6953125 C22.046875,70.7578178 22.2343731,71.7187457 22.609375,72.578125 C22.9843769,73.4375043 23.4941374,74.0644512 24.1386719,74.4589844 C24.7832063,74.8535176 25.5039023,75.0507812 26.3007812,75.0507812 C26.6992207,75.0507812 27.0878887,75.0019536 27.4667969,74.9042969 C27.845705,74.8066401 28.3320283,74.6210951 28.9257812,74.3476562 L29.171875,74.6523438 Z" id="c" fill="#000000"></path>
                <path d="M122.542969,68.9726562 L121.921875,68.8085938 C121.929688,68.6289054 121.933594,68.3828141 121.933594,68.0703125 C121.933594,67.7421859 121.929688,67.4804697 121.921875,67.2851562 C122.914067,66.6367155 123.726559,66.1992199 124.359375,65.9726562 C124.843752,65.8085929 125.386716,65.7265625 125.988281,65.7265625 C126.878911,65.7265625 127.628903,65.8945296 128.238281,66.2304688 C128.847659,66.5664079 129.30078,67.0468719 129.597656,67.671875 C129.800782,68.1093772 129.902344,68.7070275 129.902344,69.4648438 L129.855469,71.609375 L129.855469,75.1015625 C129.855469,75.4765644 129.886718,75.7460929 129.949219,75.9101562 C129.996094,76.0273443 130.070312,76.113281 130.171875,76.1679688 C130.25,76.214844 130.414061,76.2460937 130.664062,76.2617188 L131.425781,76.3320312 L131.425781,77 C130.785153,76.9453122 130.222659,76.9179688 129.738281,76.9179688 C129.269529,76.9179688 128.644535,76.9453122 127.863281,77 L127.921875,74.9375 C126.328117,76.140631 125.382814,76.8183586 125.085938,76.9707031 C124.789061,77.1230476 124.414065,77.1992188 123.960938,77.1992188 C123.01562,77.1992188 122.2793,76.9472681 121.751953,76.4433594 C121.224607,75.9394506 120.960938,75.2695354 120.960938,74.4335938 C120.960938,73.8945286 121.052733,73.402346 121.236328,72.9570312 C121.419923,72.5117165 121.640624,72.1582044 121.898438,71.8964844 C122.156251,71.6347643 122.417967,71.4414069 122.683594,71.3164062 C123.136721,71.1054677 123.873042,70.8789075 124.892578,70.6367188 C125.912114,70.39453 126.92187,70.2148443 127.921875,70.0976562 C127.929688,69.355465 127.839845,68.7773458 127.652344,68.3632812 C127.464843,67.9492167 127.14844,67.6093763 126.703125,67.34375 C126.25781,67.0781237 125.714847,66.9453125 125.074219,66.9453125 C124.613279,66.9453125 124.208986,67.0078119 123.861328,67.1328125 C123.51367,67.2578131 123.300782,67.3632808 123.222656,67.4492188 L123.011719,67.8710938 C122.80078,68.3398461 122.644532,68.7070299 122.542969,68.9726562 Z M127.921875,70.8125 C126.906245,70.9843759 126.039066,71.1757802 125.320312,71.3867188 C124.601559,71.5976573 124.093751,71.8164051 123.796875,72.0429688 C123.617187,72.1757819 123.460938,72.3749987 123.328125,72.640625 C123.124999,73.031252 123.023438,73.4648414 123.023438,73.9414062 C123.023438,74.5195341 123.183592,74.9707015 123.503906,75.2949219 C123.82422,75.6191422 124.269528,75.78125 124.839844,75.78125 C125.363284,75.78125 125.880857,75.6308609 126.392578,75.3300781 C126.904299,75.0292954 127.41406,74.578128 127.921875,73.9765625 L127.921875,70.8125 Z" id="a" fill="#FFFFFF"></path>
                <path d="M119.457031,28 L119.457031,27.3320312 L120.558594,27.3203125 C120.73047,27.3125 120.861328,27.2832034 120.951172,27.2324219 C121.041016,27.1816404 121.109375,27.1171879 121.15625,27.0390625 C121.242188,26.8828117 121.292969,26.6054707 121.308594,26.2070312 C121.316406,26.1054682 121.34375,24.9843857 121.390625,22.84375 L121.390625,17.9804688 C121.390625,16.6757747 121.367188,15.328132 121.320312,13.9375 C121.289062,12.9999953 121.246094,12.476563 121.191406,12.3671875 C121.152344,12.2890621 121.089844,12.2343752 121.003906,12.203125 C120.886718,12.1484372 120.347661,12.1210938 119.386719,12.1210938 L119.386719,11.4296875 C121.152353,11.2109364 122.378903,10.9375016 123.066406,10.609375 C123.167969,10.5624998 123.246093,10.5390625 123.300781,10.5390625 C123.355469,10.5390625 123.398437,10.5566404 123.429688,10.5917969 C123.460938,10.6269533 123.476562,10.6757809 123.476562,10.7382812 C123.476562,10.792969 123.46875,10.8710932 123.453125,10.9726562 L123.441406,11.359375 C123.402344,12.7578195 123.378906,13.9492138 123.371094,14.9335938 L123.347656,16.7617188 L123.347656,21.4726562 L123.476562,21.5429688 C123.890627,21.285155 124.488277,20.8281283 125.269531,20.171875 C125.792971,19.7265603 126.968741,18.6484461 128.796875,16.9375 C129.398441,16.9609376 129.781249,16.9726562 129.945312,16.9726562 C130.101563,16.9726562 130.496091,16.9609376 131.128906,16.9375 L131.128906,17.59375 C130.675779,17.6171876 130.386719,17.6484373 130.261719,17.6875 C130.089843,17.7421878 129.765627,17.9218735 129.289062,18.2265625 C128.539059,18.7031274 127.636724,19.3789019 126.582031,20.2539062 L125.386719,21.203125 C126.019534,21.8515657 127.113273,22.9374924 128.667969,24.4609375 C129.83985,25.656256 130.544921,26.3535146 130.783203,26.5527344 C131.021486,26.7519541 131.253905,26.8710936 131.480469,26.9101562 C131.707032,26.9492189 132.058591,26.96875 132.535156,26.96875 L132.535156,27.4960938 C131.957028,27.6054693 131.468752,27.7050777 131.070312,27.7949219 C130.671873,27.8847661 130.214846,27.9921869 129.699219,28.1171875 C129.433592,27.8984364 129.175783,27.6738293 128.925781,27.4433594 C128.67578,27.2128895 128.164066,26.6992227 127.390625,25.9023438 C125.80468,24.2773356 124.500005,23.0078171 123.476562,22.09375 L123.347656,22.1523438 L123.347656,22.84375 C123.386719,24.8750102 123.410156,25.9726554 123.417969,26.1367188 C123.425781,26.5273457 123.472656,26.8124991 123.558594,26.9921875 C123.589844,27.0625004 123.636718,27.1230466 123.699219,27.1738281 C123.761719,27.2246096 123.855468,27.2656248 123.980469,27.296875 C124.035157,27.3046875 124.468746,27.3164062 125.28125,27.3320312 L125.28125,28 C124.249995,27.9374997 123.31641,27.90625 122.480469,27.90625 C121.667965,27.90625 120.660162,27.9374997 119.457031,28 Z" id="k" fill="#000000"></path>
                <path d="M29.171875,194.652344 L28.703125,195.4375 C28.1640598,195.726564 27.630862,195.937499 27.1035156,196.070312 C26.5761692,196.203126 25.9804721,196.269531 25.3164062,196.269531 C23.675773,196.269531 22.3691455,195.775396 21.3964844,194.787109 C20.4238233,193.798823 19.9375,192.441415 19.9375,190.714844 C19.9375,189.800777 20.0683581,189.005863 20.3300781,188.330078 C20.5917982,187.654293 20.9140606,187.132814 21.296875,186.765625 C21.5546888,186.507811 22.0449183,186.17383 22.7675781,185.763672 C23.490238,185.353514 23.9960923,185.089844 24.2851562,184.972656 C24.8164089,184.746093 25.4531213,184.632812 26.1953125,184.632812 C26.898441,184.632812 27.5312472,184.707031 28.09375,184.855469 C28.4531268,184.949219 28.8124982,185.105468 29.171875,185.324219 C29.0781245,185.925784 29.0117189,186.380858 28.9726562,186.689453 C28.9335936,186.998048 28.8828128,187.55859 28.8203125,188.371094 L28.1523438,188.371094 C28.1054685,187.613277 28.058594,187.140626 28.0117188,186.953125 C27.9804686,186.835937 27.9101568,186.730469 27.8007812,186.636719 C27.5195298,186.417968 27.1582053,186.228516 26.7167969,186.068359 C26.2753884,185.908202 25.7929714,185.828125 25.2695312,185.828125 C24.613278,185.828125 24.0449243,185.962889 23.5644531,186.232422 C23.083982,186.501954 22.7109388,186.929685 22.4453125,187.515625 C22.1796862,188.101565 22.046875,188.828121 22.046875,189.695312 C22.046875,190.757818 22.2343731,191.718746 22.609375,192.578125 C22.9843769,193.437504 23.4941374,194.064451 24.1386719,194.458984 C24.7832063,194.853518 25.5039023,195.050781 26.3007812,195.050781 C26.6992207,195.050781 27.0878887,195.001954 27.4667969,194.904297 C27.845705,194.80664 28.3320283,194.621095 28.9257812,194.347656 L29.171875,194.652344 Z" id="c-copy-2" fill="#000000"></path>
                <path d="M29.171875,314.652344 L28.703125,315.4375 C28.1640598,315.726564 27.630862,315.937499 27.1035156,316.070312 C26.5761692,316.203126 25.9804721,316.269531 25.3164062,316.269531 C23.675773,316.269531 22.3691455,315.775396 21.3964844,314.787109 C20.4238233,313.798823 19.9375,312.441415 19.9375,310.714844 C19.9375,309.800777 20.0683581,309.005863 20.3300781,308.330078 C20.5917982,307.654293 20.9140606,307.132814 21.296875,306.765625 C21.5546888,306.507811 22.0449183,306.17383 22.7675781,305.763672 C23.490238,305.353514 23.9960923,305.089844 24.2851562,304.972656 C24.8164089,304.746093 25.4531213,304.632812 26.1953125,304.632812 C26.898441,304.632812 27.5312472,304.707031 28.09375,304.855469 C28.4531268,304.949219 28.8124982,305.105468 29.171875,305.324219 C29.0781245,305.925784 29.0117189,306.380858 28.9726562,306.689453 C28.9335936,306.998048 28.8828128,307.55859 28.8203125,308.371094 L28.1523438,308.371094 C28.1054685,307.613277 28.058594,307.140626 28.0117188,306.953125 C27.9804686,306.835937 27.9101568,306.730469 27.8007812,306.636719 C27.5195298,306.417968 27.1582053,306.228516 26.7167969,306.068359 C26.2753884,305.908202 25.7929714,305.828125 25.2695312,305.828125 C24.613278,305.828125 24.0449243,305.962889 23.5644531,306.232422 C23.083982,306.501954 22.7109388,306.929685 22.4453125,307.515625 C22.1796862,308.101565 22.046875,308.828121 22.046875,309.695312 C22.046875,310.757818 22.2343731,311.718746 22.609375,312.578125 C22.9843769,313.437504 23.4941374,314.064451 24.1386719,314.458984 C24.7832063,314.853518 25.5039023,315.050781 26.3007812,315.050781 C26.6992207,315.050781 27.0878887,315.001954 27.4667969,314.904297 C27.845705,314.80664 28.3320283,314.621095 28.9257812,314.347656 L29.171875,314.652344 Z" id="c-copy-3" fill="#000000"></path>
                <rect id="Rectangle-4-Copy-2" fill="#2AB573" x="36" y="158" width="180" height="60"></rect>
                <rect id="Rectangle-4-Copy-3" fill="#1887B7" x="216" y="158" width="90" height="60"></rect>
                <text id="a-copy" font-family="Palatino-Roman, Palatino" font-size="24" font-weight="normal" fill="#FFFFFF">
                    <tspan x="120" y="197">a</tspan>
                </text>
                <rect id="Rectangle-4-Copy" fill="#1887B7" x="256" y="38" width="90" height="60"></rect>
                <rect id="Rectangle-4-Copy-5" fill="#C80000" x="36" y="278" width="180" height="60"></rect>
                <rect id="Rectangle-4-Copy-4" fill="#1887B7" x="36" y="278" width="90" height="60"></rect>
                <path d="M248.171875,74.6523438 L247.703125,75.4375 C247.16406,75.7265639 246.630862,75.9374993 246.103516,76.0703125 C245.576169,76.2031257 244.980472,76.2695312 244.316406,76.2695312 C242.675773,76.2695312 241.369145,75.7753956 240.396484,74.7871094 C239.423823,73.7988232 238.9375,72.4414149 238.9375,70.7148438 C238.9375,69.8007767 239.068358,69.0058628 239.330078,68.3300781 C239.591798,67.6542935 239.914061,67.1328143 240.296875,66.765625 C240.554689,66.5078112 241.044918,66.1738302 241.767578,65.7636719 C242.490238,65.3535136 242.996092,65.0898443 243.285156,64.9726562 C243.816409,64.7460926 244.453121,64.6328125 245.195312,64.6328125 C245.898441,64.6328125 246.531247,64.7070305 247.09375,64.8554688 C247.453127,64.9492192 247.812498,65.1054677 248.171875,65.3242188 C248.078125,65.9257843 248.011719,66.3808578 247.972656,66.6894531 C247.933594,66.9980484 247.882813,67.5585897 247.820312,68.3710938 L247.152344,68.3710938 C247.105469,67.6132775 247.058594,67.1406259 247.011719,66.953125 C246.980469,66.8359369 246.910157,66.7304692 246.800781,66.6367188 C246.51953,66.4179677 246.158205,66.2285164 245.716797,66.0683594 C245.275388,65.9082023 244.792971,65.828125 244.269531,65.828125 C243.613278,65.828125 243.044924,65.9628893 242.564453,66.2324219 C242.083982,66.5019545 241.710939,66.9296846 241.445312,67.515625 C241.179686,68.1015654 241.046875,68.8281207 241.046875,69.6953125 C241.046875,70.7578178 241.234373,71.7187457 241.609375,72.578125 C241.984377,73.4375043 242.494137,74.0644512 243.138672,74.4589844 C243.783206,74.8535176 244.503902,75.0507812 245.300781,75.0507812 C245.699221,75.0507812 246.087889,75.0019536 246.466797,74.9042969 C246.845705,74.8066401 247.332028,74.6210951 247.925781,74.3476562 L248.171875,74.6523438 Z" id="c-copy" fill="#000000"></path>
                <path d="M295.523438,77.046875 C295.617188,76.0624951 295.667969,75.4414075 295.675781,75.1835938 C295.722656,73.4882728 295.746094,72.492189 295.746094,72.1953125 L295.746094,66.9804688 C295.746094,65.6757747 295.722656,64.328132 295.675781,62.9375 C295.644531,61.9999953 295.601563,61.476563 295.546875,61.3671875 C295.507812,61.2890621 295.445313,61.2343752 295.359375,61.203125 C295.242187,61.1484372 294.70313,61.1210938 293.742188,61.1210938 L293.742188,60.4296875 C295.507821,60.2109364 296.734372,59.9375016 297.421875,59.609375 C297.523438,59.5624998 297.601562,59.5390625 297.65625,59.5390625 C297.710938,59.5390625 297.753906,59.5566404 297.785156,59.5917969 C297.816406,59.6269533 297.832031,59.6757809 297.832031,59.7382812 C297.832031,59.792969 297.824219,59.8710932 297.808594,59.9726562 L297.796875,60.359375 C297.757812,61.7578195 297.734375,62.9492138 297.726562,63.9335938 L297.703125,65.7617188 L297.703125,68.0820312 L299.320312,66.5 C299.531251,66.3203116 299.878904,66.1445321 300.363281,65.9726562 C300.847659,65.8007804 301.363279,65.7148438 301.910156,65.7148438 C302.769536,65.7148438 303.531247,65.9160136 304.195312,66.3183594 C304.859378,66.7207051 305.369139,67.2890588 305.724609,68.0234375 C306.08008,68.7578162 306.257812,69.570308 306.257812,70.4609375 C306.257812,71.1484409 306.156251,71.8007782 305.953125,72.4179688 C305.749999,73.0351593 305.488283,73.5859351 305.167969,74.0703125 C304.933593,74.4375018 304.734376,74.6874993 304.570312,74.8203125 L302.859375,76.0507812 C302.164059,76.5664088 301.621096,76.8964837 301.230469,77.0410156 C300.839842,77.1855476 300.339847,77.2578125 299.730469,77.2578125 C299.207029,77.2578125 298.722658,77.1875007 298.277344,77.046875 C297.832029,76.9062493 297.359377,76.660158 296.859375,76.3085938 L295.910156,77.1992188 L295.523438,77.046875 Z M297.703125,69.4882812 L297.703125,73.8828125 C297.703125,74.2734395 297.724609,74.523437 297.767578,74.6328125 C297.810547,74.742188 297.941405,74.8867179 298.160156,75.0664062 C298.488283,75.3398451 298.869138,75.5585929 299.302734,75.7226562 C299.73633,75.8867196 300.19531,75.96875 300.679688,75.96875 C301.812506,75.96875 302.683591,75.5312544 303.292969,74.65625 C303.902347,73.7812456 304.207031,72.6992252 304.207031,71.4101562 C304.207031,70.4960892 304.062501,69.7304718 303.773438,69.1132812 C303.484374,68.4960907 303.08594,68.0332047 302.578125,67.7246094 C302.07031,67.4160141 301.500003,67.2617188 300.867188,67.2617188 C300.124996,67.2617188 299.46094,67.4746072 298.875,67.9003906 C298.28906,68.326174 297.898438,68.8554656 297.703125,69.4882812 Z" id="b" fill="#FFFFFF"></path>
                <path d="M255.523438,197.046875 C255.617188,196.062495 255.667969,195.441408 255.675781,195.183594 C255.722656,193.488273 255.746094,192.492189 255.746094,192.195312 L255.746094,186.980469 C255.746094,185.675775 255.722656,184.328132 255.675781,182.9375 C255.644531,181.999995 255.601563,181.476563 255.546875,181.367188 C255.507812,181.289062 255.445313,181.234375 255.359375,181.203125 C255.242187,181.148437 254.70313,181.121094 253.742188,181.121094 L253.742188,180.429688 C255.507821,180.210936 256.734372,179.937502 257.421875,179.609375 C257.523438,179.5625 257.601562,179.539062 257.65625,179.539062 C257.710938,179.539062 257.753906,179.55664 257.785156,179.591797 C257.816406,179.626953 257.832031,179.675781 257.832031,179.738281 C257.832031,179.792969 257.824219,179.871093 257.808594,179.972656 L257.796875,180.359375 C257.757812,181.757819 257.734375,182.949214 257.726562,183.933594 L257.703125,185.761719 L257.703125,188.082031 L259.320312,186.5 C259.531251,186.320312 259.878904,186.144532 260.363281,185.972656 C260.847659,185.80078 261.363279,185.714844 261.910156,185.714844 C262.769536,185.714844 263.531247,185.916014 264.195312,186.318359 C264.859378,186.720705 265.369139,187.289059 265.724609,188.023438 C266.08008,188.757816 266.257812,189.570308 266.257812,190.460938 C266.257812,191.148441 266.156251,191.800778 265.953125,192.417969 C265.749999,193.035159 265.488283,193.585935 265.167969,194.070312 C264.933593,194.437502 264.734376,194.687499 264.570312,194.820312 L262.859375,196.050781 C262.164059,196.566409 261.621096,196.896484 261.230469,197.041016 C260.839842,197.185548 260.339847,197.257812 259.730469,197.257812 C259.207029,197.257812 258.722658,197.187501 258.277344,197.046875 C257.832029,196.906249 257.359377,196.660158 256.859375,196.308594 L255.910156,197.199219 L255.523438,197.046875 Z M257.703125,189.488281 L257.703125,193.882812 C257.703125,194.273439 257.724609,194.523437 257.767578,194.632812 C257.810547,194.742188 257.941405,194.886718 258.160156,195.066406 C258.488283,195.339845 258.869138,195.558593 259.302734,195.722656 C259.73633,195.88672 260.19531,195.96875 260.679688,195.96875 C261.812506,195.96875 262.683591,195.531254 263.292969,194.65625 C263.902347,193.781246 264.207031,192.699225 264.207031,191.410156 C264.207031,190.496089 264.062501,189.730472 263.773438,189.113281 C263.484374,188.496091 263.08594,188.033205 262.578125,187.724609 C262.07031,187.416014 261.500003,187.261719 260.867188,187.261719 C260.124996,187.261719 259.46094,187.474607 258.875,187.900391 C258.28906,188.326174 257.898438,188.855466 257.703125,189.488281 Z" id="b-copy" fill="#FFFFFF"></path>
                <path d="M75.5234375,317.046875 C75.617188,316.062495 75.6679687,315.441408 75.6757812,315.183594 C75.7226565,313.488273 75.7460938,312.492189 75.7460938,312.195312 L75.7460938,306.980469 C75.7460938,305.675775 75.7226565,304.328132 75.6757812,302.9375 C75.6445311,301.999995 75.6015628,301.476563 75.546875,301.367188 C75.5078123,301.289062 75.4453129,301.234375 75.359375,301.203125 C75.2421869,301.148437 74.7031298,301.121094 73.7421875,301.121094 L73.7421875,300.429688 C75.5078213,300.210936 76.7343716,299.937502 77.421875,299.609375 C77.523438,299.5625 77.6015622,299.539062 77.65625,299.539062 C77.7109378,299.539062 77.7539061,299.55664 77.7851562,299.591797 C77.8164064,299.626953 77.8320312,299.675781 77.8320312,299.738281 C77.8320312,299.792969 77.8242188,299.871093 77.8085938,299.972656 L77.796875,300.359375 C77.7578123,301.757819 77.734375,302.949214 77.7265625,303.933594 L77.703125,305.761719 L77.703125,308.082031 L79.3203125,306.5 C79.5312511,306.320312 79.8789038,306.144532 80.3632812,305.972656 C80.8476587,305.80078 81.3632785,305.714844 81.9101562,305.714844 C82.7695355,305.714844 83.5312467,305.916014 84.1953125,306.318359 C84.8593783,306.720705 85.3691388,307.289059 85.7246094,308.023438 C86.0800799,308.757816 86.2578125,309.570308 86.2578125,310.460938 C86.2578125,311.148441 86.156251,311.800778 85.953125,312.417969 C85.749999,313.035159 85.4882829,313.585935 85.1679688,314.070312 C84.9335926,314.437502 84.7343758,314.687499 84.5703125,314.820312 L82.859375,316.050781 C82.164059,316.566409 81.6210957,316.896484 81.2304688,317.041016 C80.8398418,317.185548 80.3398468,317.257812 79.7304688,317.257812 C79.2070286,317.257812 78.7226585,317.187501 78.2773438,317.046875 C77.832029,316.906249 77.3593775,316.660158 76.859375,316.308594 L75.9101562,317.199219 L75.5234375,317.046875 Z M77.703125,309.488281 L77.703125,313.882812 C77.703125,314.273439 77.7246092,314.523437 77.7675781,314.632812 C77.8105471,314.742188 77.9414052,314.886718 78.1601562,315.066406 C78.4882829,315.339845 78.8691385,315.558593 79.3027344,315.722656 C79.7363303,315.88672 80.1953101,315.96875 80.6796875,315.96875 C81.8125057,315.96875 82.6835907,315.531254 83.2929688,314.65625 C83.9023468,313.781246 84.2070312,312.699225 84.2070312,311.410156 C84.2070312,310.496089 84.0625014,309.730472 83.7734375,309.113281 C83.4843736,308.496091 83.08594,308.033205 82.578125,307.724609 C82.07031,307.416014 81.5000032,307.261719 80.8671875,307.261719 C80.1249963,307.261719 79.4609404,307.474607 78.875,307.900391 C78.2890596,308.326174 77.8984385,308.855466 77.703125,309.488281 Z" id="b-copy-2" fill="#FFFFFF"></path>
                <path d="M149.542969,308.972656 L148.921875,308.808594 C148.929688,308.628905 148.933594,308.382814 148.933594,308.070312 C148.933594,307.742186 148.929688,307.48047 148.921875,307.285156 C149.914067,306.636716 150.726559,306.19922 151.359375,305.972656 C151.843752,305.808593 152.386716,305.726562 152.988281,305.726562 C153.878911,305.726562 154.628903,305.89453 155.238281,306.230469 C155.847659,306.566408 156.30078,307.046872 156.597656,307.671875 C156.800782,308.109377 156.902344,308.707027 156.902344,309.464844 L156.855469,311.609375 L156.855469,315.101562 C156.855469,315.476564 156.886718,315.746093 156.949219,315.910156 C156.996094,316.027344 157.070312,316.113281 157.171875,316.167969 C157.25,316.214844 157.414061,316.246094 157.664062,316.261719 L158.425781,316.332031 L158.425781,317 C157.785153,316.945312 157.222659,316.917969 156.738281,316.917969 C156.269529,316.917969 155.644535,316.945312 154.863281,317 L154.921875,314.9375 C153.328117,316.140631 152.382814,316.818359 152.085938,316.970703 C151.789061,317.123048 151.414065,317.199219 150.960938,317.199219 C150.01562,317.199219 149.2793,316.947268 148.751953,316.443359 C148.224607,315.939451 147.960938,315.269535 147.960938,314.433594 C147.960938,313.894529 148.052733,313.402346 148.236328,312.957031 C148.419923,312.511717 148.640624,312.158204 148.898438,311.896484 C149.156251,311.634764 149.417967,311.441407 149.683594,311.316406 C150.136721,311.105468 150.873042,310.878907 151.892578,310.636719 C152.912114,310.39453 153.92187,310.214844 154.921875,310.097656 C154.929688,309.355465 154.839845,308.777346 154.652344,308.363281 C154.464843,307.949217 154.14844,307.609376 153.703125,307.34375 C153.25781,307.078124 152.714847,306.945312 152.074219,306.945312 C151.613279,306.945312 151.208986,307.007812 150.861328,307.132812 C150.51367,307.257813 150.300782,307.363281 150.222656,307.449219 L150.011719,307.871094 C149.80078,308.339846 149.644532,308.70703 149.542969,308.972656 Z M154.921875,310.8125 C153.906245,310.984376 153.039066,311.17578 152.320312,311.386719 C151.601559,311.597657 151.093751,311.816405 150.796875,312.042969 C150.617187,312.175782 150.460938,312.374999 150.328125,312.640625 C150.124999,313.031252 150.023438,313.464841 150.023438,313.941406 C150.023438,314.519534 150.183592,314.970702 150.503906,315.294922 C150.82422,315.619142 151.269528,315.78125 151.839844,315.78125 C152.363284,315.78125 152.880857,315.630861 153.392578,315.330078 C153.904299,315.029295 154.41406,314.578128 154.921875,313.976562 L154.921875,310.8125 Z M165.527344,311.867188 L165.527344,311.703125 L166.054688,310.132812 L172.324219,310.132812 L172.324219,310.308594 L171.761719,311.867188 L165.527344,311.867188 Z M180.515625,317.046875 C180.609375,316.062495 180.660156,315.441408 180.667969,315.183594 C180.714844,313.488273 180.738281,312.492189 180.738281,312.195312 L180.738281,306.980469 C180.738281,305.675775 180.714844,304.328132 180.667969,302.9375 C180.636719,301.999995 180.59375,301.476563 180.539062,301.367188 C180.5,301.289062 180.4375,301.234375 180.351562,301.203125 C180.234374,301.148437 179.695317,301.121094 178.734375,301.121094 L178.734375,300.429688 C180.500009,300.210936 181.726559,299.937502 182.414062,299.609375 C182.515626,299.5625 182.59375,299.539062 182.648438,299.539062 C182.703125,299.539062 182.746094,299.55664 182.777344,299.591797 C182.808594,299.626953 182.824219,299.675781 182.824219,299.738281 C182.824219,299.792969 182.816406,299.871093 182.800781,299.972656 L182.789062,300.359375 C182.75,301.757819 182.726563,302.949214 182.71875,303.933594 L182.695312,305.761719 L182.695312,308.082031 L184.3125,306.5 C184.523439,306.320312 184.871091,306.144532 185.355469,305.972656 C185.839846,305.80078 186.355466,305.714844 186.902344,305.714844 C187.761723,305.714844 188.523434,305.916014 189.1875,306.318359 C189.851566,306.720705 190.361326,307.289059 190.716797,308.023438 C191.072267,308.757816 191.25,309.570308 191.25,310.460938 C191.25,311.148441 191.148439,311.800778 190.945312,312.417969 C190.742186,313.035159 190.48047,313.585935 190.160156,314.070312 C189.92578,314.437502 189.726563,314.687499 189.5625,314.820312 L187.851562,316.050781 C187.156247,316.566409 186.613283,316.896484 186.222656,317.041016 C185.832029,317.185548 185.332034,317.257812 184.722656,317.257812 C184.199216,317.257812 183.714846,317.187501 183.269531,317.046875 C182.824217,316.906249 182.351565,316.660158 181.851562,316.308594 L180.902344,317.199219 L180.515625,317.046875 Z M182.695312,309.488281 L182.695312,313.882812 C182.695312,314.273439 182.716797,314.523437 182.759766,314.632812 C182.802735,314.742188 182.933593,314.886718 183.152344,315.066406 C183.48047,315.339845 183.861326,315.558593 184.294922,315.722656 C184.728518,315.88672 185.187498,315.96875 185.671875,315.96875 C186.804693,315.96875 187.675778,315.531254 188.285156,314.65625 C188.894534,313.781246 189.199219,312.699225 189.199219,311.410156 C189.199219,310.496089 189.054689,309.730472 188.765625,309.113281 C188.476561,308.496091 188.078128,308.033205 187.570312,307.724609 C187.062497,307.416014 186.492191,307.261719 185.859375,307.261719 C185.117184,307.261719 184.453128,307.474607 183.867188,307.900391 C183.281247,308.326174 182.890626,308.855466 182.695312,309.488281 Z" id="a---b" fill="#FFFFFF"></path>
                <path d="M294.457031,28 L294.457031,27.3320312 L295.558594,27.3203125 C295.73047,27.3125 295.861328,27.2832034 295.951172,27.2324219 C296.041016,27.1816404 296.109375,27.1171879 296.15625,27.0390625 C296.242188,26.8828117 296.292969,26.6054707 296.308594,26.2070312 C296.316406,26.1054682 296.34375,24.9843857 296.390625,22.84375 L296.390625,17.9804688 C296.390625,16.6757747 296.367188,15.328132 296.320312,13.9375 C296.289062,12.9999953 296.246094,12.476563 296.191406,12.3671875 C296.152344,12.2890621 296.089844,12.2343752 296.003906,12.203125 C295.886718,12.1484372 295.347661,12.1210938 294.386719,12.1210938 L294.386719,11.4296875 C296.152353,11.2109364 297.378903,10.9375016 298.066406,10.609375 C298.167969,10.5624998 298.246093,10.5390625 298.300781,10.5390625 C298.355469,10.5390625 298.398437,10.5566404 298.429688,10.5917969 C298.460938,10.6269533 298.476562,10.6757809 298.476562,10.7382812 C298.476562,10.792969 298.46875,10.8710932 298.453125,10.9726562 L298.441406,11.359375 C298.402344,12.7578195 298.378906,13.9492138 298.371094,14.9335938 L298.347656,16.7617188 L298.347656,21.4726562 L298.476562,21.5429688 C298.890627,21.285155 299.488277,20.8281283 300.269531,20.171875 C300.792971,19.7265603 301.968741,18.6484461 303.796875,16.9375 C304.398441,16.9609376 304.781249,16.9726562 304.945312,16.9726562 C305.101563,16.9726562 305.496091,16.9609376 306.128906,16.9375 L306.128906,17.59375 C305.675779,17.6171876 305.386719,17.6484373 305.261719,17.6875 C305.089843,17.7421878 304.765627,17.9218735 304.289062,18.2265625 C303.539059,18.7031274 302.636724,19.3789019 301.582031,20.2539062 L300.386719,21.203125 C301.019534,21.8515657 302.113273,22.9374924 303.667969,24.4609375 C304.83985,25.656256 305.544921,26.3535146 305.783203,26.5527344 C306.021486,26.7519541 306.253905,26.8710936 306.480469,26.9101562 C306.707032,26.9492189 307.058591,26.96875 307.535156,26.96875 L307.535156,27.4960938 C306.957028,27.6054693 306.468752,27.7050777 306.070312,27.7949219 C305.671873,27.8847661 305.214846,27.9921869 304.699219,28.1171875 C304.433592,27.8984364 304.175783,27.6738293 303.925781,27.4433594 C303.67578,27.2128895 303.164066,26.6992227 302.390625,25.9023438 C300.80468,24.2773356 299.500005,23.0078171 298.476562,22.09375 L298.347656,22.1523438 L298.347656,22.84375 C298.386719,24.8750102 298.410156,25.9726554 298.417969,26.1367188 C298.425781,26.5273457 298.472656,26.8124991 298.558594,26.9921875 C298.589844,27.0625004 298.636718,27.1230466 298.699219,27.1738281 C298.761719,27.2246096 298.855468,27.2656248 298.980469,27.296875 C299.035157,27.3046875 299.468746,27.3164062 300.28125,27.3320312 L300.28125,28 C299.249995,27.9374997 298.31641,27.90625 297.480469,27.90625 C296.667965,27.90625 295.660162,27.9374997 294.457031,28 Z" id="k-copy" fill="#000000"></path>
                <path d="M135.120605,24.6577148 L134.98877,24.6210938 L134.915527,24.0205078 L134.98877,23.9472656 C135.511233,23.7958977 136.080075,23.5883802 136.695312,23.324707 C137.60352,22.9389629 138.18701,22.6801764 138.445801,22.5483398 L138.63623,22.621582 C138.558105,24.8579213 138.519043,26.1420882 138.519043,26.4741211 L138.519043,29.1914062 C138.519043,30.275396 138.53125,31.0957003 138.555664,31.6523438 C138.570313,31.9794938 138.610595,32.1857906 138.676514,32.2712402 C138.742432,32.3566899 138.840087,32.4177244 138.969482,32.4543457 C139.098878,32.490967 139.522457,32.5239256 140.240234,32.5532227 L140.240234,33 C139.004877,32.9609373 138.230959,32.9414062 137.918457,32.9414062 C137.684081,32.9414062 136.856452,32.9609373 135.435547,33 L135.435547,32.5532227 C136.177738,32.5092771 136.606201,32.4738771 136.720947,32.4470215 C136.835694,32.4201659 136.921142,32.3798831 136.977295,32.3261719 C137.033448,32.2724607 137.07373,32.1967778 137.098145,32.0991211 C137.137207,31.9477531 137.171387,31.5119665 137.200684,30.791748 C137.229981,30.0715296 137.244629,29.5258808 137.244629,29.1547852 L137.244629,26.269043 C137.244629,25.0922793 137.242188,24.354982 137.237305,24.0571289 C137.237305,23.9252923 137.220215,23.8422853 137.186035,23.8081055 C137.166504,23.7885741 137.139649,23.7788086 137.105469,23.7788086 C137.061523,23.7788086 136.94922,23.8178707 136.768555,23.8959961 C135.938472,24.2670917 135.389161,24.5209954 135.120605,24.6577148 Z" id="1" fill="#000000"></path>
                <path d="M310.249023,33 L310.249023,32.5898438 C310.400391,32.3994131 310.673826,32.1015645 311.069336,31.6962891 L312.702637,29.9970703 C312.82959,29.8652337 313.139646,29.5209989 313.632812,28.9643555 C314.003908,28.5395487 314.294433,28.1525896 314.504395,27.8034668 C314.714357,27.454344 314.868164,27.1149919 314.96582,26.7854004 C315.063477,26.4558089 315.112305,26.1420913 315.112305,25.8442383 C315.112305,25.3364232 314.970705,24.8969745 314.6875,24.5258789 C314.321287,24.0327124 313.789066,23.7861328 313.09082,23.7861328 C312.700193,23.7861328 312.3584,23.8496087 312.06543,23.9765625 C311.772459,24.1035163 311.575928,24.2438957 311.47583,24.3977051 C311.375732,24.5515144 311.228028,24.9921839 311.032715,25.7197266 L310.593262,25.7197266 C310.71045,25.0654264 310.793457,24.391605 310.842285,23.6982422 C311.149904,23.405272 311.40747,23.1953131 311.61499,23.0683594 C311.822511,22.9414056 312.077635,22.8400883 312.380371,22.7644043 C312.683107,22.6887203 313.012694,22.6508789 313.369141,22.6508789 C314.008792,22.6508789 314.548338,22.7595204 314.987793,22.9768066 C315.427248,23.1940929 315.778807,23.517576 316.04248,23.9472656 C316.306154,24.3769553 316.437988,24.8627903 316.437988,25.4047852 C316.437988,25.9907256 316.287843,26.5681124 315.987549,27.1369629 C315.687254,27.7058134 315.063481,28.4614211 314.116211,29.4038086 L312.86377,30.6489258 C312.409666,31.1030296 312.065431,31.4643541 311.831055,31.7329102 L315.046387,31.7329102 C315.690921,31.7329102 316.323239,31.7011722 316.943359,31.6376953 L316.994629,31.6962891 C316.965332,31.8818369 316.950684,32.0991198 316.950684,32.3481445 C316.950684,32.572755 316.965332,32.7631828 316.994629,32.9194336 L316.943359,33 C316.596678,32.9804687 316.201174,32.9658204 315.756836,32.9560547 C314.760737,32.9365233 314.09424,32.9267578 313.757324,32.9267578 C313.332517,32.9267578 312.617193,32.9365233 311.611328,32.9560547 C311.059568,32.9658204 310.605471,32.9804687 310.249023,33 Z" id="2" fill="#000000"></path>
                <g id="Group" transform="translate(140.000000, 122.000000)" fill="#000000" font-family="Palatino-Roman, Palatino" font-weight="normal">
                    <text id="k-copy-2" font-size="24">
                        <tspan x="0" y="25">k</tspan>
                    </text>
                    <text id="+" font-size="24">
                        <tspan x="22" y="25">+</tspan>
                    </text>
                    <text id="1-copy" font-size="15">
                        <tspan x="15" y="30">1</tspan>
                    </text>
                    <text id="k-copy-3" font-size="24">
                        <tspan x="39" y="25">k</tspan>
                    </text>
                    <text id="2-copy" font-size="15">
                        <tspan x="55" y="30">2</tspan>
                    </text>
                </g>
                <path d="M138.457031,267 L138.457031,266.332031 L139.558594,266.320312 C139.73047,266.3125 139.861328,266.283203 139.951172,266.232422 C140.041016,266.18164 140.109375,266.117188 140.15625,266.039062 C140.242188,265.882812 140.292969,265.605471 140.308594,265.207031 C140.316406,265.105468 140.34375,263.984386 140.390625,261.84375 L140.390625,256.980469 C140.390625,255.675775 140.367188,254.328132 140.320312,252.9375 C140.289062,251.999995 140.246094,251.476563 140.191406,251.367188 C140.152344,251.289062 140.089844,251.234375 140.003906,251.203125 C139.886718,251.148437 139.347661,251.121094 138.386719,251.121094 L138.386719,250.429688 C140.152353,250.210936 141.378903,249.937502 142.066406,249.609375 C142.167969,249.5625 142.246093,249.539062 142.300781,249.539062 C142.355469,249.539062 142.398437,249.55664 142.429688,249.591797 C142.460938,249.626953 142.476562,249.675781 142.476562,249.738281 C142.476562,249.792969 142.46875,249.871093 142.453125,249.972656 L142.441406,250.359375 C142.402344,251.757819 142.378906,252.949214 142.371094,253.933594 L142.347656,255.761719 L142.347656,260.472656 L142.476562,260.542969 C142.890627,260.285155 143.488277,259.828128 144.269531,259.171875 C144.792971,258.72656 145.968741,257.648446 147.796875,255.9375 C148.398441,255.960938 148.781249,255.972656 148.945312,255.972656 C149.101563,255.972656 149.496091,255.960938 150.128906,255.9375 L150.128906,256.59375 C149.675779,256.617188 149.386719,256.648437 149.261719,256.6875 C149.089843,256.742188 148.765627,256.921873 148.289062,257.226562 C147.539059,257.703127 146.636724,258.378902 145.582031,259.253906 L144.386719,260.203125 C145.019534,260.851566 146.113273,261.937492 147.667969,263.460938 C148.83985,264.656256 149.544921,265.353515 149.783203,265.552734 C150.021486,265.751954 150.253905,265.871094 150.480469,265.910156 C150.707032,265.949219 151.058591,265.96875 151.535156,265.96875 L151.535156,266.496094 C150.957028,266.605469 150.468752,266.705078 150.070312,266.794922 C149.671873,266.884766 149.214846,266.992187 148.699219,267.117188 C148.433592,266.898436 148.175783,266.673829 147.925781,266.443359 C147.67578,266.212889 147.164066,265.699223 146.390625,264.902344 C144.80468,263.277336 143.500005,262.007817 142.476562,261.09375 L142.347656,261.152344 L142.347656,261.84375 C142.386719,263.87501 142.410156,264.972655 142.417969,265.136719 C142.425781,265.527346 142.472656,265.812499 142.558594,265.992188 C142.589844,266.0625 142.636718,266.123047 142.699219,266.173828 C142.761719,266.22461 142.855468,266.265625 142.980469,266.296875 C143.035157,266.304688 143.468746,266.316406 144.28125,266.332031 L144.28125,267 C143.249995,266.9375 142.31641,266.90625 141.480469,266.90625 C140.667965,266.90625 139.660162,266.9375 138.457031,267 Z" id="k-copy-5" fill="#000000"></path>
                <polygon id="-" fill="#000000" points="163.527344 261.867188 163.527344 261.703125 164.054688 260.132812 170.324219 260.132812 170.324219 260.308594 169.761719 261.867188"></polygon>
                <path d="M154.120605,263.657715 L153.98877,263.621094 L153.915527,263.020508 L153.98877,262.947266 C154.511233,262.795898 155.080075,262.58838 155.695312,262.324707 C156.60352,261.938963 157.18701,261.680176 157.445801,261.54834 L157.63623,261.621582 C157.558105,263.857921 157.519043,265.142088 157.519043,265.474121 L157.519043,268.191406 C157.519043,269.275396 157.53125,270.0957 157.555664,270.652344 C157.570313,270.979494 157.610595,271.185791 157.676514,271.27124 C157.742432,271.35669 157.840087,271.417724 157.969482,271.454346 C158.098878,271.490967 158.522457,271.523926 159.240234,271.553223 L159.240234,272 C158.004877,271.960937 157.230959,271.941406 156.918457,271.941406 C156.684081,271.941406 155.856452,271.960937 154.435547,272 L154.435547,271.553223 C155.177738,271.509277 155.606201,271.473877 155.720947,271.447021 C155.835694,271.420166 155.921142,271.379883 155.977295,271.326172 C156.033448,271.272461 156.07373,271.196778 156.098145,271.099121 C156.137207,270.947753 156.171387,270.511966 156.200684,269.791748 C156.229981,269.07153 156.244629,268.525881 156.244629,268.154785 L156.244629,265.269043 C156.244629,264.092279 156.242188,263.354982 156.237305,263.057129 C156.237305,262.925292 156.220215,262.842285 156.186035,262.808105 C156.166504,262.788574 156.139649,262.778809 156.105469,262.778809 C156.061523,262.778809 155.94922,262.817871 155.768555,262.895996 C154.938472,263.267092 154.389161,263.520995 154.120605,263.657715 Z" id="1-copy-2" fill="#000000"></path>
                <path d="M177.457031,267 L177.457031,266.332031 L178.558594,266.320312 C178.73047,266.3125 178.861328,266.283203 178.951172,266.232422 C179.041016,266.18164 179.109375,266.117188 179.15625,266.039062 C179.242188,265.882812 179.292969,265.605471 179.308594,265.207031 C179.316406,265.105468 179.34375,263.984386 179.390625,261.84375 L179.390625,256.980469 C179.390625,255.675775 179.367188,254.328132 179.320312,252.9375 C179.289062,251.999995 179.246094,251.476563 179.191406,251.367188 C179.152344,251.289062 179.089844,251.234375 179.003906,251.203125 C178.886718,251.148437 178.347661,251.121094 177.386719,251.121094 L177.386719,250.429688 C179.152353,250.210936 180.378903,249.937502 181.066406,249.609375 C181.167969,249.5625 181.246093,249.539062 181.300781,249.539062 C181.355469,249.539062 181.398437,249.55664 181.429688,249.591797 C181.460938,249.626953 181.476562,249.675781 181.476562,249.738281 C181.476562,249.792969 181.46875,249.871093 181.453125,249.972656 L181.441406,250.359375 C181.402344,251.757819 181.378906,252.949214 181.371094,253.933594 L181.347656,255.761719 L181.347656,260.472656 L181.476562,260.542969 C181.890627,260.285155 182.488277,259.828128 183.269531,259.171875 C183.792971,258.72656 184.968741,257.648446 186.796875,255.9375 C187.398441,255.960938 187.781249,255.972656 187.945312,255.972656 C188.101563,255.972656 188.496091,255.960938 189.128906,255.9375 L189.128906,256.59375 C188.675779,256.617188 188.386719,256.648437 188.261719,256.6875 C188.089843,256.742188 187.765627,256.921873 187.289062,257.226562 C186.539059,257.703127 185.636724,258.378902 184.582031,259.253906 L183.386719,260.203125 C184.019534,260.851566 185.113273,261.937492 186.667969,263.460938 C187.83985,264.656256 188.544921,265.353515 188.783203,265.552734 C189.021486,265.751954 189.253905,265.871094 189.480469,265.910156 C189.707032,265.949219 190.058591,265.96875 190.535156,265.96875 L190.535156,266.496094 C189.957028,266.605469 189.468752,266.705078 189.070312,266.794922 C188.671873,266.884766 188.214846,266.992187 187.699219,267.117188 C187.433592,266.898436 187.175783,266.673829 186.925781,266.443359 C186.67578,266.212889 186.164066,265.699223 185.390625,264.902344 C183.80468,263.277336 182.500005,262.007817 181.476562,261.09375 L181.347656,261.152344 L181.347656,261.84375 C181.386719,263.87501 181.410156,264.972655 181.417969,265.136719 C181.425781,265.527346 181.472656,265.812499 181.558594,265.992188 C181.589844,266.0625 181.636718,266.123047 181.699219,266.173828 C181.761719,266.22461 181.855468,266.265625 181.980469,266.296875 C182.035157,266.304688 182.468746,266.316406 183.28125,266.332031 L183.28125,267 C182.249995,266.9375 181.31641,266.90625 180.480469,266.90625 C179.667965,266.90625 178.660162,266.9375 177.457031,267 Z" id="k-copy-4" fill="#000000"></path>
                <path d="M193.249023,272 L193.249023,271.589844 C193.400391,271.399413 193.673826,271.101565 194.069336,270.696289 L195.702637,268.99707 C195.82959,268.865234 196.139646,268.520999 196.632812,267.964355 C197.003908,267.539549 197.294433,267.15259 197.504395,266.803467 C197.714357,266.454344 197.868164,266.114992 197.96582,265.7854 C198.063477,265.455809 198.112305,265.142091 198.112305,264.844238 C198.112305,264.336423 197.970705,263.896975 197.6875,263.525879 C197.321287,263.032712 196.789066,262.786133 196.09082,262.786133 C195.700193,262.786133 195.3584,262.849609 195.06543,262.976562 C194.772459,263.103516 194.575928,263.243896 194.47583,263.397705 C194.375732,263.551514 194.228028,263.992184 194.032715,264.719727 L193.593262,264.719727 C193.71045,264.065426 193.793457,263.391605 193.842285,262.698242 C194.149904,262.405272 194.40747,262.195313 194.61499,262.068359 C194.822511,261.941406 195.077635,261.840088 195.380371,261.764404 C195.683107,261.68872 196.012694,261.650879 196.369141,261.650879 C197.008792,261.650879 197.548338,261.75952 197.987793,261.976807 C198.427248,262.194093 198.778807,262.517576 199.04248,262.947266 C199.306154,263.376955 199.437988,263.86279 199.437988,264.404785 C199.437988,264.990726 199.287843,265.568112 198.987549,266.136963 C198.687254,266.705813 198.063481,267.461421 197.116211,268.403809 L195.86377,269.648926 C195.409666,270.10303 195.065431,270.464354 194.831055,270.73291 L198.046387,270.73291 C198.690921,270.73291 199.323239,270.701172 199.943359,270.637695 L199.994629,270.696289 C199.965332,270.881837 199.950684,271.09912 199.950684,271.348145 C199.950684,271.572755 199.965332,271.763183 199.994629,271.919434 L199.943359,272 C199.596678,271.980469 199.201174,271.96582 198.756836,271.956055 C197.760737,271.936523 197.09424,271.926758 196.757324,271.926758 C196.332517,271.926758 195.617193,271.936523 194.611328,271.956055 C194.059568,271.96582 193.605471,271.980469 193.249023,272 Z" id="2-copy-2" fill="#000000"></path>
            </g>
        </g>
    </g>
</svg>