<?xml version="1.0" encoding="UTF-8" standalone="no"?>
<!DOCTYPE svg PUBLIC "-//W3C//DTD SVG 1.1//EN"
 "http://www.w3.org/Graphics/SVG/1.1/DTD/svg11.dtd">
<!-- Generated by graphviz version 2.40.1 (20161225.0304)
 -->
<!-- Title: %3 Pages: 1 -->
<svg width="464pt" height="70pt"
 viewBox="0.00 0.00 463.78 69.51" xmlns="http://www.w3.org/2000/svg" xmlns:xlink="http://www.w3.org/1999/xlink">
<g id="graph0" class="graph" transform="scale(1 1) rotate(0) translate(4 65.5093)">
<title>%3</title>
<polygon fill="#ffffff" stroke="transparent" points="-4,4 -4,-65.5093 459.7849,-65.5093 459.7849,4 -4,4"/>
<!-- fib5 -->
<g id="node1" class="node">
<title>fib5</title>
<ellipse fill="none" stroke="#000000" cx="30.3925" cy="-18.6016" rx="30.2853" ry="18.7038"/>
<text text-anchor="middle" x="30.3925" y="-16.5549" font-family="CMU Serif Roman" font-size="14.00" fill="#000000">F(5)</text>
</g>
<!-- fib4 -->
<g id="node2" class="node">
<title>fib4</title>
<ellipse fill="none" stroke="#000000" cx="109.3925" cy="-18.6016" rx="30.2853" ry="18.7038"/>
<text text-anchor="middle" x="109.3925" y="-16.5549" font-family="CMU Serif Roman" font-size="14.00" fill="#000000">F(4)</text>
</g>
<!-- fib5&#45;&gt;fib4 -->
<g id="edge1" class="edge">
<title>fib5&#45;&gt;fib4</title>
<path fill="none" stroke="#000000" d="M54.1542,-6.8652C61.3736,-4.8333 68.5931,-4.1995 75.8126,-4.9638"/>
<polygon fill="#000000" stroke="#000000" points="75.1738,-8.4051 85.6573,-6.8727 76.5064,-1.533 75.1738,-8.4051"/>
</g>
<!-- fib5&#45;&gt;fib4 -->
<!-- fib3 -->
<g id="node3" class="node">
<title>fib3</title>
<ellipse fill="none" stroke="#000000" cx="188.3925" cy="-18.6016" rx="30.2853" ry="18.7038"/>
<text text-anchor="middle" x="188.3925" y="-16.5549" font-family="CMU Serif Roman" font-size="14.00" fill="#000000">F(3)</text>
</g>
<!-- fib5&#45;&gt;fib3 -->
<g id="edge2" class="edge">
<title>fib5&#45;&gt;fib3</title>
<path fill="none" stroke="#000000" d="M46.5091,-34.8309C55.3943,-42.6145 67.099,-51.1186 79.3925,-55.2032 104.6989,-63.6114 114.0861,-63.6114 139.3925,-55.2032 148.2284,-52.2674 156.7602,-47.0485 164.1595,-41.455"/>
<polygon fill="#000000" stroke="#000000" points="166.7415,-43.8654 172.2758,-34.8309 162.3154,-38.4423 166.7415,-43.8654"/>
</g>
<!-- fib4&#45;&gt;fib3 -->
<!-- fib4&#45;&gt;fib3 -->
<g id="edge8" class="edge">
<title>fib4&#45;&gt;fib3</title>
<path fill="none" stroke="#000000" d="M133.1542,-30.338C140.3736,-32.37 147.5931,-33.0038 154.8126,-32.2394"/>
<polygon fill="#000000" stroke="#000000" points="155.5064,-35.6702 164.6573,-30.3305 154.1738,-28.7982 155.5064,-35.6702"/>
</g>
<!-- fib2 -->
<g id="node4" class="node">
<title>fib2</title>
<ellipse fill="none" stroke="#000000" cx="267.3925" cy="-18.6016" rx="30.2853" ry="18.7038"/>
<text text-anchor="middle" x="267.3925" y="-16.5549" font-family="CMU Serif Roman" font-size="14.00" fill="#000000">F(2)</text>
</g>
<!-- fib4&#45;&gt;fib2 -->
<g id="edge9" class="edge">
<title>fib4&#45;&gt;fib2</title>
<path fill="none" stroke="#000000" d="M125.5091,-34.8309C134.3943,-42.6145 146.099,-51.1186 158.3925,-55.2032 183.6989,-63.6114 193.0861,-63.6114 218.3925,-55.2032 227.2284,-52.2674 235.7602,-47.0485 243.1595,-41.455"/>
<polygon fill="#000000" stroke="#000000" points="245.7415,-43.8654 251.2758,-34.8309 241.3154,-38.4423 245.7415,-43.8654"/>
</g>
<!-- fib3&#45;&gt;fib2 -->
<!-- fib3&#45;&gt;fib2 -->
<g id="edge10" class="edge">
<title>fib3&#45;&gt;fib2</title>
<path fill="none" stroke="#000000" d="M212.1542,-30.338C219.3736,-32.37 226.5931,-33.0038 233.8126,-32.2394"/>
<polygon fill="#000000" stroke="#000000" points="234.5064,-35.6702 243.6573,-30.3305 233.1738,-28.7982 234.5064,-35.6702"/>
</g>
<!-- fib1 -->
<g id="node5" class="node">
<title>fib1</title>
<ellipse fill="none" stroke="#000000" cx="346.3925" cy="-18.6016" rx="30.2853" ry="18.7038"/>
<text text-anchor="middle" x="346.3925" y="-16.5549" font-family="CMU Serif Roman" font-size="14.00" fill="#000000">F(1)</text>
</g>
<!-- fib3&#45;&gt;fib1 -->
<g id="edge11" class="edge">
<title>fib3&#45;&gt;fib1</title>
<path fill="none" stroke="#000000" d="M204.5091,-34.8309C213.3943,-42.6145 225.099,-51.1186 237.3925,-55.2032 262.6989,-63.6114 272.0861,-63.6114 297.3925,-55.2032 306.2284,-52.2674 314.7602,-47.0485 322.1595,-41.455"/>
<polygon fill="#000000" stroke="#000000" points="324.7415,-43.8654 330.2758,-34.8309 320.3154,-38.4423 324.7415,-43.8654"/>
</g>
<!-- fib2&#45;&gt;fib1 -->
<!-- fib2&#45;&gt;fib1 -->
<g id="edge12" class="edge">
<title>fib2&#45;&gt;fib1</title>
<path fill="none" stroke="#000000" d="M291.1542,-30.338C298.3736,-32.37 305.5931,-33.0038 312.8126,-32.2394"/>
<polygon fill="#000000" stroke="#000000" points="313.5064,-35.6702 322.6573,-30.3305 312.1738,-28.7982 313.5064,-35.6702"/>
</g>
<!-- fib0 -->
<g id="node6" class="node">
<title>fib0</title>
<ellipse fill="none" stroke="#000000" cx="425.3925" cy="-18.6016" rx="30.2853" ry="18.7038"/>
<text text-anchor="middle" x="425.3925" y="-16.5549" font-family="CMU Serif Roman" font-size="14.00" fill="#000000">F(0)</text>
</g>
<!-- fib2&#45;&gt;fib0 -->
<g id="edge13" class="edge">
<title>fib2&#45;&gt;fib0</title>
<path fill="none" stroke="#000000" d="M283.5091,-34.8309C292.3943,-42.6145 304.099,-51.1186 316.3925,-55.2032 341.6989,-63.6114 351.0861,-63.6114 376.3925,-55.2032 385.2284,-52.2674 393.7602,-47.0485 401.1595,-41.455"/>
<polygon fill="#000000" stroke="#000000" points="403.7415,-43.8654 409.2758,-34.8309 399.3154,-38.4423 403.7415,-43.8654"/>
</g>
<!-- fib1&#45;&gt;fib0 -->
</g>
</svg>
