<?xml version="1.0" encoding="UTF-8" standalone="no"?>
<!DOCTYPE svg PUBLIC "-//W3C//DTD SVG 1.1//EN"
 "http://www.w3.org/Graphics/SVG/1.1/DTD/svg11.dtd">
<!-- Generated by graphviz version 2.40.1 (20161225.0304)
 -->
<!-- Title: %3 Pages: 1 -->
<svg width="456pt" height="320pt"
 viewBox="0.00 0.00 455.92 320.20" xmlns="http://www.w3.org/2000/svg" xmlns:xlink="http://www.w3.org/1999/xlink">
<g id="graph0" class="graph" transform="scale(1 1) rotate(0) translate(4 316.2032)">
<title>%3</title>
<polygon fill="#ffffff" stroke="transparent" points="-4,4 -4,-316.2032 451.9247,-316.2032 451.9247,4 -4,4"/>
<!-- x -->
<g id="node1" class="node">
<title>x</title>
<ellipse fill="none" stroke="#000000" cx="30.3925" cy="-155.6016" rx="30.2853" ry="18.7038"/>
<text text-anchor="middle" x="30.3925" y="-153.5549" font-family="CMU Serif Roman" font-size="14.00" fill="#000000">F(5)</text>
</g>
<!-- xa -->
<g id="node2" class="node">
<title>xa</title>
<ellipse fill="none" stroke="#000000" cx="127.1774" cy="-183.6016" rx="30.2853" ry="18.7038"/>
<text text-anchor="middle" x="127.1774" y="-181.5549" font-family="CMU Serif Roman" font-size="14.00" fill="#000000">F(3)</text>
</g>
<!-- x&#45;&#45;xa -->
<g id="edge1" class="edge">
<title>x&#45;&#45;xa</title>
<path fill="none" stroke="#000000" d="M58.1272,-163.6253C71.0864,-167.3744 86.4789,-171.8275 99.4387,-175.5768"/>
</g>
<!-- a -->
<g id="node7" class="node">
<title>a</title>
<ellipse fill="none" stroke="#000000" cx="127.1774" cy="-128.6016" rx="30.2853" ry="18.7038"/>
<text text-anchor="middle" x="127.1774" y="-126.5549" font-family="CMU Serif Roman" font-size="14.00" fill="#000000">F(4)</text>
</g>
<!-- x&#45;&#45;a -->
<g id="edge2" class="edge">
<title>x&#45;&#45;a</title>
<path fill="none" stroke="#000000" d="M58.1272,-147.8645C71.0864,-144.2493 86.4789,-139.9552 99.4387,-136.3399"/>
</g>
<!-- xaa -->
<g id="node3" class="node">
<title>xaa</title>
<ellipse fill="none" stroke="#000000" cx="223.9624" cy="-238.6016" rx="30.2853" ry="18.7038"/>
<text text-anchor="middle" x="223.9624" y="-236.5549" font-family="CMU Serif Roman" font-size="14.00" fill="#000000">F(2)</text>
</g>
<!-- xa&#45;&#45;xaa -->
<g id="edge3" class="edge">
<title>xa&#45;&#45;xaa</title>
<path fill="none" stroke="#000000" d="M149.6251,-196.358C165.2609,-205.2433 186.0273,-217.0442 201.6364,-225.9144"/>
</g>
<!-- xab -->
<g id="node4" class="node">
<title>xab</title>
<ellipse fill="none" stroke="#000000" cx="223.9624" cy="-183.6016" rx="30.2853" ry="18.7038"/>
<text text-anchor="middle" x="223.9624" y="-181.5549" font-family="CMU Serif Roman" font-size="14.00" fill="#000000">F(1)</text>
</g>
<!-- xa&#45;&#45;xab -->
<g id="edge4" class="edge">
<title>xa&#45;&#45;xab</title>
<path fill="none" stroke="#000000" d="M157.8008,-183.6016C169.2092,-183.6016 182.1477,-183.6016 193.5382,-183.6016"/>
</g>
<!-- xaaa -->
<g id="node5" class="node">
<title>xaaa</title>
<ellipse fill="none" stroke="#000000" cx="320.7473" cy="-293.6016" rx="30.2853" ry="18.7038"/>
<text text-anchor="middle" x="320.7473" y="-291.5549" font-family="CMU Serif Roman" font-size="14.00" fill="#000000">F(1)</text>
</g>
<!-- xaa&#45;&#45;xaaa -->
<g id="edge5" class="edge">
<title>xaa&#45;&#45;xaaa</title>
<path fill="none" stroke="#000000" d="M246.41,-251.358C262.0459,-260.2433 282.8122,-272.0442 298.4214,-280.9144"/>
</g>
<!-- xaab -->
<g id="node6" class="node">
<title>xaab</title>
<ellipse fill="none" stroke="#000000" cx="320.7473" cy="-238.6016" rx="30.2853" ry="18.7038"/>
<text text-anchor="middle" x="320.7473" y="-236.5549" font-family="CMU Serif Roman" font-size="14.00" fill="#000000">F(0)</text>
</g>
<!-- xaa&#45;&#45;xaab -->
<g id="edge6" class="edge">
<title>xaa&#45;&#45;xaab</title>
<path fill="none" stroke="#000000" d="M254.5857,-238.6016C265.9942,-238.6016 278.9326,-238.6016 290.3232,-238.6016"/>
</g>
<!-- ab -->
<g id="node8" class="node">
<title>ab</title>
<ellipse fill="none" stroke="#000000" cx="223.9624" cy="-128.6016" rx="30.2853" ry="18.7038"/>
<text text-anchor="middle" x="223.9624" y="-126.5549" font-family="CMU Serif Roman" font-size="14.00" fill="#000000">F(3)</text>
</g>
<!-- a&#45;&#45;ab -->
<g id="edge7" class="edge">
<title>a&#45;&#45;ab</title>
<path fill="none" stroke="#000000" d="M157.8008,-128.6016C169.2092,-128.6016 182.1477,-128.6016 193.5382,-128.6016"/>
</g>
<!-- aa -->
<g id="node9" class="node">
<title>aa</title>
<ellipse fill="none" stroke="#000000" cx="223.9624" cy="-73.6016" rx="30.2853" ry="18.7038"/>
<text text-anchor="middle" x="223.9624" y="-71.5549" font-family="CMU Serif Roman" font-size="14.00" fill="#000000">F(2)</text>
</g>
<!-- a&#45;&#45;aa -->
<g id="edge8" class="edge">
<title>a&#45;&#45;aa</title>
<path fill="none" stroke="#000000" d="M149.6251,-115.8453C165.2609,-106.9599 186.0273,-95.159 201.6364,-86.2888"/>
</g>
<!-- aba -->
<g id="node12" class="node">
<title>aba</title>
<ellipse fill="none" stroke="#000000" cx="320.7473" cy="-183.6016" rx="30.2853" ry="18.7038"/>
<text text-anchor="middle" x="320.7473" y="-181.5549" font-family="CMU Serif Roman" font-size="14.00" fill="#000000">F(2)</text>
</g>
<!-- ab&#45;&#45;aba -->
<g id="edge11" class="edge">
<title>ab&#45;&#45;aba</title>
<path fill="none" stroke="#000000" d="M246.41,-141.358C262.0459,-150.2433 282.8122,-162.0442 298.4214,-170.9144"/>
</g>
<!-- abb -->
<g id="node13" class="node">
<title>abb</title>
<ellipse fill="none" stroke="#000000" cx="320.7473" cy="-128.6016" rx="30.2853" ry="18.7038"/>
<text text-anchor="middle" x="320.7473" y="-126.5549" font-family="CMU Serif Roman" font-size="14.00" fill="#000000">F(1)</text>
</g>
<!-- ab&#45;&#45;abb -->
<g id="edge12" class="edge">
<title>ab&#45;&#45;abb</title>
<path fill="none" stroke="#000000" d="M254.5857,-128.6016C265.9942,-128.6016 278.9326,-128.6016 290.3232,-128.6016"/>
</g>
<!-- aab -->
<g id="node10" class="node">
<title>aab</title>
<ellipse fill="none" stroke="#000000" cx="320.7473" cy="-73.6016" rx="30.2853" ry="18.7038"/>
<text text-anchor="middle" x="320.7473" y="-71.5549" font-family="CMU Serif Roman" font-size="14.00" fill="#000000">F(1)</text>
</g>
<!-- aa&#45;&#45;aab -->
<g id="edge9" class="edge">
<title>aa&#45;&#45;aab</title>
<path fill="none" stroke="#000000" d="M254.5857,-73.6016C265.9942,-73.6016 278.9326,-73.6016 290.3232,-73.6016"/>
</g>
<!-- aaa -->
<g id="node11" class="node">
<title>aaa</title>
<ellipse fill="none" stroke="#000000" cx="320.7473" cy="-18.6016" rx="30.2853" ry="18.7038"/>
<text text-anchor="middle" x="320.7473" y="-16.5549" font-family="CMU Serif Roman" font-size="14.00" fill="#000000">F(0)</text>
</g>
<!-- aa&#45;&#45;aaa -->
<g id="edge10" class="edge">
<title>aa&#45;&#45;aaa</title>
<path fill="none" stroke="#000000" d="M246.41,-60.8453C262.0459,-51.9599 282.8122,-40.159 298.4214,-31.2888"/>
</g>
<!-- abaa -->
<g id="node14" class="node">
<title>abaa</title>
<ellipse fill="none" stroke="#000000" cx="417.5322" cy="-210.6016" rx="30.2853" ry="18.7038"/>
<text text-anchor="middle" x="417.5322" y="-208.5549" font-family="CMU Serif Roman" font-size="14.00" fill="#000000">F(1)</text>
</g>
<!-- aba&#45;&#45;abaa -->
<g id="edge13" class="edge">
<title>aba&#45;&#45;abaa</title>
<path fill="none" stroke="#000000" d="M348.482,-191.3387C361.4412,-194.954 376.8337,-199.248 389.7935,-202.8634"/>
</g>
<!-- abab -->
<g id="node15" class="node">
<title>abab</title>
<ellipse fill="none" stroke="#000000" cx="417.5322" cy="-155.6016" rx="30.2853" ry="18.7038"/>
<text text-anchor="middle" x="417.5322" y="-153.5549" font-family="CMU Serif Roman" font-size="14.00" fill="#000000">F(0)</text>
</g>
<!-- aba&#45;&#45;abab -->
<g id="edge14" class="edge">
<title>aba&#45;&#45;abab</title>
<path fill="none" stroke="#000000" d="M348.482,-175.5779C361.4412,-171.8288 376.8337,-167.3757 389.7935,-163.6265"/>
</g>
</g>
</svg>
