<?xml version="1.0" encoding="UTF-8" standalone="no"?>
<!DOCTYPE svg PUBLIC "-//W3C//DTD SVG 1.1//EN"
 "http://www.w3.org/Graphics/SVG/1.1/DTD/svg11.dtd">
<!-- Generated by graphviz version 2.40.1 (20161225.0304)
 -->
<!-- Title: %3 Pages: 1 -->
<svg width="650pt" height="332pt"
 viewBox="0.00 0.00 649.60 332.00" xmlns="http://www.w3.org/2000/svg" xmlns:xlink="http://www.w3.org/1999/xlink">
<g id="graph0" class="graph" transform="scale(1 1) rotate(0) translate(4 328)">
<title>%3</title>
<polygon fill="#ffffff" stroke="transparent" points="-4,4 -4,-328 645.6031,-328 645.6031,4 -4,4"/>
<!-- x -->
<g id="node1" class="node">
<title>x</title>
<ellipse fill="none" stroke="#000000" cx="320.8016" cy="-306" rx="45.604" ry="18"/>
<text text-anchor="middle" x="320.8016" y="-303.2" font-family="Fira Code" font-size="14.00" fill="#000000">Fib(5)</text>
</g>
<!-- xa -->
<g id="node2" class="node">
<title>xa</title>
<ellipse fill="none" stroke="#000000" cx="265.8016" cy="-234" rx="45.604" ry="18"/>
<text text-anchor="middle" x="265.8016" y="-231.2" font-family="Fira Code" font-size="14.00" fill="#000000">Fib(3)</text>
</g>
<!-- x&#45;&#45;xa -->
<g id="edge1" class="edge">
<title>x&#45;&#45;xa</title>
<path fill="none" stroke="#000000" d="M307.4876,-288.5708C298.8402,-277.2506 287.6158,-262.5568 278.9929,-251.2687"/>
</g>
<!-- a -->
<g id="node7" class="node">
<title>a</title>
<ellipse fill="none" stroke="#000000" cx="375.8016" cy="-234" rx="45.604" ry="18"/>
<text text-anchor="middle" x="375.8016" y="-231.2" font-family="Fira Code" font-size="14.00" fill="#000000">Fib(4)</text>
</g>
<!-- x&#45;&#45;a -->
<g id="edge2" class="edge">
<title>x&#45;&#45;a</title>
<path fill="none" stroke="#000000" d="M334.1155,-288.5708C342.7629,-277.2506 353.9873,-262.5568 362.6102,-251.2687"/>
</g>
<!-- xaa -->
<g id="node3" class="node">
<title>xaa</title>
<ellipse fill="none" stroke="#000000" cx="155.8016" cy="-162" rx="45.604" ry="18"/>
<text text-anchor="middle" x="155.8016" y="-159.2" font-family="Fira Code" font-size="14.00" fill="#000000">Fib(2)</text>
</g>
<!-- xa&#45;&#45;xaa -->
<g id="edge3" class="edge">
<title>xa&#45;&#45;xaa</title>
<path fill="none" stroke="#000000" d="M242.2038,-218.5542C223.7704,-206.4887 198.2597,-189.7908 179.7399,-177.6687"/>
</g>
<!-- xab -->
<g id="node4" class="node">
<title>xab</title>
<ellipse fill="none" stroke="#000000" cx="265.8016" cy="-162" rx="45.604" ry="18"/>
<text text-anchor="middle" x="265.8016" y="-159.2" font-family="Fira Code" font-size="14.00" fill="#000000">Fib(1)</text>
</g>
<!-- xa&#45;&#45;xab -->
<g id="edge4" class="edge">
<title>xa&#45;&#45;xab</title>
<path fill="none" stroke="#000000" d="M265.8016,-215.8314C265.8016,-205 265.8016,-191.2876 265.8016,-180.4133"/>
</g>
<!-- xaaa -->
<g id="node5" class="node">
<title>xaaa</title>
<ellipse fill="none" stroke="#000000" cx="45.8016" cy="-90" rx="45.604" ry="18"/>
<text text-anchor="middle" x="45.8016" y="-87.2" font-family="Fira Code" font-size="14.00" fill="#000000">Fib(1)</text>
</g>
<!-- xaa&#45;&#45;xaaa -->
<g id="edge5" class="edge">
<title>xaa&#45;&#45;xaaa</title>
<path fill="none" stroke="#000000" d="M132.2038,-146.5542C113.7704,-134.4887 88.2597,-117.7908 69.7399,-105.6687"/>
</g>
<!-- xaab -->
<g id="node6" class="node">
<title>xaab</title>
<ellipse fill="none" stroke="#000000" cx="155.8016" cy="-90" rx="45.604" ry="18"/>
<text text-anchor="middle" x="155.8016" y="-87.2" font-family="Fira Code" font-size="14.00" fill="#000000">Fib(0)</text>
</g>
<!-- xaa&#45;&#45;xaab -->
<g id="edge6" class="edge">
<title>xaa&#45;&#45;xaab</title>
<path fill="none" stroke="#000000" d="M155.8016,-143.8314C155.8016,-133 155.8016,-119.2876 155.8016,-108.4133"/>
</g>
<!-- ab -->
<g id="node8" class="node">
<title>ab</title>
<ellipse fill="none" stroke="#000000" cx="375.8016" cy="-162" rx="45.604" ry="18"/>
<text text-anchor="middle" x="375.8016" y="-159.2" font-family="Fira Code" font-size="14.00" fill="#000000">Fib(3)</text>
</g>
<!-- a&#45;&#45;ab -->
<g id="edge7" class="edge">
<title>a&#45;&#45;ab</title>
<path fill="none" stroke="#000000" d="M375.8016,-215.8314C375.8016,-205 375.8016,-191.2876 375.8016,-180.4133"/>
</g>
<!-- aa -->
<g id="node9" class="node">
<title>aa</title>
<ellipse fill="none" stroke="#000000" cx="485.8016" cy="-162" rx="45.604" ry="18"/>
<text text-anchor="middle" x="485.8016" y="-159.2" font-family="Fira Code" font-size="14.00" fill="#000000">Fib(2)</text>
</g>
<!-- a&#45;&#45;aa -->
<g id="edge8" class="edge">
<title>a&#45;&#45;aa</title>
<path fill="none" stroke="#000000" d="M399.3993,-218.5542C417.8327,-206.4887 443.3434,-189.7908 461.8633,-177.6687"/>
</g>
<!-- aba -->
<g id="node12" class="node">
<title>aba</title>
<ellipse fill="none" stroke="#000000" cx="265.8016" cy="-90" rx="45.604" ry="18"/>
<text text-anchor="middle" x="265.8016" y="-87.2" font-family="Fira Code" font-size="14.00" fill="#000000">Fib(2)</text>
</g>
<!-- ab&#45;&#45;aba -->
<g id="edge11" class="edge">
<title>ab&#45;&#45;aba</title>
<path fill="none" stroke="#000000" d="M352.2038,-146.5542C333.7704,-134.4887 308.2597,-117.7908 289.7399,-105.6687"/>
</g>
<!-- abb -->
<g id="node13" class="node">
<title>abb</title>
<ellipse fill="none" stroke="#000000" cx="375.8016" cy="-90" rx="45.604" ry="18"/>
<text text-anchor="middle" x="375.8016" y="-87.2" font-family="Fira Code" font-size="14.00" fill="#000000">Fib(1)</text>
</g>
<!-- ab&#45;&#45;abb -->
<g id="edge12" class="edge">
<title>ab&#45;&#45;abb</title>
<path fill="none" stroke="#000000" d="M375.8016,-143.8314C375.8016,-133 375.8016,-119.2876 375.8016,-108.4133"/>
</g>
<!-- aab -->
<g id="node10" class="node">
<title>aab</title>
<ellipse fill="none" stroke="#000000" cx="485.8016" cy="-90" rx="45.604" ry="18"/>
<text text-anchor="middle" x="485.8016" y="-87.2" font-family="Fira Code" font-size="14.00" fill="#000000">Fib(1)</text>
</g>
<!-- aa&#45;&#45;aab -->
<g id="edge9" class="edge">
<title>aa&#45;&#45;aab</title>
<path fill="none" stroke="#000000" d="M485.8016,-143.8314C485.8016,-133 485.8016,-119.2876 485.8016,-108.4133"/>
</g>
<!-- aaa -->
<g id="node11" class="node">
<title>aaa</title>
<ellipse fill="none" stroke="#000000" cx="595.8016" cy="-90" rx="45.604" ry="18"/>
<text text-anchor="middle" x="595.8016" y="-87.2" font-family="Fira Code" font-size="14.00" fill="#000000">Fib(0)</text>
</g>
<!-- aa&#45;&#45;aaa -->
<g id="edge10" class="edge">
<title>aa&#45;&#45;aaa</title>
<path fill="none" stroke="#000000" d="M509.3993,-146.5542C527.8327,-134.4887 553.3434,-117.7908 571.8633,-105.6687"/>
</g>
<!-- abaa -->
<g id="node14" class="node">
<title>abaa</title>
<ellipse fill="none" stroke="#000000" cx="210.8016" cy="-18" rx="45.604" ry="18"/>
<text text-anchor="middle" x="210.8016" y="-15.2" font-family="Fira Code" font-size="14.00" fill="#000000">Fib(1)</text>
</g>
<!-- aba&#45;&#45;abaa -->
<g id="edge13" class="edge">
<title>aba&#45;&#45;abaa</title>
<path fill="none" stroke="#000000" d="M252.4876,-72.5708C243.8402,-61.2506 232.6158,-46.5568 223.9929,-35.2687"/>
</g>
<!-- abab -->
<g id="node15" class="node">
<title>abab</title>
<ellipse fill="none" stroke="#000000" cx="320.8016" cy="-18" rx="45.604" ry="18"/>
<text text-anchor="middle" x="320.8016" y="-15.2" font-family="Fira Code" font-size="14.00" fill="#000000">Fib(0)</text>
</g>
<!-- aba&#45;&#45;abab -->
<g id="edge14" class="edge">
<title>aba&#45;&#45;abab</title>
<path fill="none" stroke="#000000" d="M279.1155,-72.5708C287.7629,-61.2506 298.9873,-46.5568 307.6102,-35.2687"/>
</g>
</g>
</svg>
